<svg xmlns="http://www.w3.org/2000/svg" xmlns:xlink="http://www.w3.org/1999/xlink" width="505.684015070558" height="75.065335570455" viewBox="0 0 379.263 56.299"><style><![CDATA[.B{stroke-miterlimit:10}.C{stroke-width:.3985}.D{fill:none}.E{stroke:rgb(0%,62.353516%,95.684814%)}.F{stroke:rgb(0%,0%,0%)}.G{fill:rgb(0%,0%,0%)}.H{overflow:visible}.I{stroke:none}.J{fill:rgb(0%,62.353516%,95.684814%)}.K{stroke-width:.79701}.L{stroke-linecap:round}.M{stroke-linejoin:round}.N{fill:rgb(100%,100%,100%)}]]></style><defs><symbol id="A" class="H"><path d="M4.578125-3.1875c0-.796875-.046875-1.59375-.390625-2.328125-.453125-.96875-1.28125-1.125-1.6875-1.125-.609375 0-1.328125.265625-1.75 1.1875-.3125.6875-.359375 1.46875-.359375 2.265625 0 .75.03125 1.640625.453125 2.40625.421875.796875 1.15625 1 1.640625 1 .53125 0 1.296875-.203125 1.734375-1.15625.3125-.6875.359375-1.46875.359375-2.25zM2.484375 0C2.09375 0 1.5-.25 1.328125-1.203125 1.21875-1.796875 1.21875-2.71875 1.21875-3.3125l.078125-1.828125c.1875-1.1875.9375-1.28125 1.1875-1.28125.328125 0 .984375.1875 1.171875 1.171875.109375.5625.109375 1.3125.109375 1.9375 0 .75 0 1.421875-.109375 2.0625C3.5-.296875 2.9375 0 2.484375 0zm0 0" class="I"/></symbol><symbol id="B" class="H"><path d="M6.5625-2.296875c.171875 0 .359375 0 .359375-.203125 0-.1875-.1875-.1875-.359375-.1875H1.171875c-.171875 0-.34375 0-.34375.1875 0 .203125.171875.203125.34375.203125zm0 0" class="I"/></symbol><symbol id="C" class="H"><path d="M1.578125-7.125c0-.171875 0-.359375-.1875-.359375-.203125 0-.203125.1875-.203125.359375v9.265625c0 .171875 0 .359375.203125.359375.1875 0 .1875-.1875.1875-.359375zm0 0" class="I"/></symbol><symbol id="D" class="H"><path d="M6.71875-3.234375c.140625-.0625.203125-.125.203125-.21875s-.046875-.15625-.203125-.21875l-5.5-2.59375c-.125-.078125-.171875-.078125-.1875-.078125-.125 0-.203125.09375-.203125.203125 0 .125.078125.171875.1875.21875L6.25-3.453125 1.03125-1c-.1875.09375-.203125.171875-.203125.234375 0 .109375.09375.203125.203125.203125.03125 0 .046875 0 .171875-.078125zm-.15625 4.59375c.171875 0 .359375 0 .359375-.1875 0-.203125-.21875-.203125-.359375-.203125h-5.375c-.15625 0-.359375 0-.359375.203125 0 .1875.171875.1875.34375.1875zm0 0" class="I"/></symbol><symbol id="E" class="H"><path d="M4.6875-3.765625c.015625-.046875.03125-.109375.03125-.171875 0-.171875-.109375-.265625-.28125-.265625-.09375 0-.375.0625-.40625.421875-.1875-.359375-.53125-.625-.9375-.625-1.125 0-2.359375 1.390625-2.359375 2.828125C.734375-.59375 1.328125 0 2.046875 0c.59375 0 1.0625-.46875 1.15625-.578125L3.21875-.5625 2.890625.75c-.046875.09375-.375 1.078125-1.4375 1.078125-.1875 0-.515625-.015625-.796875-.109375.296875-.078125.40625-.34375.40625-.515625 0-.15625-.109375-.34375-.375-.34375-.21875 0-.53125.171875-.53125.578125s.359375.609375 1.3125.609375c1.25 0 1.96875-.78125 2.125-1.375zM3.40625-1.28125c-.0625.265625-.296875.515625-.515625.703125-.203125.171875-.515625.359375-.8125.359375-.5 0-.640625-.515625-.640625-.921875 0-.46875.28125-1.65625.5625-2.15625.265625-.484375.6875-.890625 1.109375-.890625.65625 0 .796875.8125.796875.859375s-.015625.109375-.03125.140625zm0 0" class="I"/></symbol><symbol id="F" class="H"><path d="M3.65625-3.984375h.859375c.203125 0 .296875 0 .296875-.203125 0-.109375-.09375-.109375-.265625-.109375H3.71875L3.921875-5.4375l.25-1.03125c.078125-.1875.25-.34375.46875-.34375.03125 0 .296875 0 .484375.1875-.4375.03125-.546875.390625-.546875.53125 0 .234375.1875.359375.375.359375.265625 0 .546875-.234375.546875-.609375 0-.453125-.453125-.6875-.859375-.6875-.34375 0-.96875.1875-1.265625 1.171875-.0625.203125-.09375.3125-.328125 1.5625h-.6875c-.203125 0-.3125 0-.3125.1875 0 .125.09375.125.28125.125h.65625L2.25-.046875c-.1875.96875-.359375 1.875-.875 1.875-.046875 0-.28125 0-.484375-.1875.46875-.03125.5625-.390625.5625-.53125 0-.234375-.1875-.359375-.375-.359375C.8125.75.53125.984375.53125 1.359375c0 .4375.4375.6875.84375.6875.546875 0 .953125-.59375 1.125-.96875.328125-.625.546875-1.828125.5625-1.90625zm0 0" class="I"/></symbol><symbol id="G" class="H"><path d="M6.734375-2.265625c.109375-.0625.1875-.109375.1875-.234375 0-.109375-.078125-.15625-.1875-.21875L1.203125-5.3125c-.125-.078125-.140625-.078125-.171875-.078125-.109375 0-.203125.09375-.203125.203125 0 .09375.046875.15625.1875.21875L6.25-2.5 1.015625-.015625c-.140625.0625-.1875.125-.1875.21875 0 .109375.09375.203125.203125.203125.03125 0 .046875 0 .171875-.078125zm0 0" class="I"/></symbol><clipPath id="H"><path d="M5.378906 31.390625h1.59375v.355469h-1.59375zm0 0"/></clipPath><clipPath id="I"><path d="M5.378906 31.390625h4.582032v.355469H5.378906zm0 0"/></clipPath><clipPath id="J"><path d="M7.96875 31.390625h4.984375v.355469H7.96875zm0 0"/></clipPath><clipPath id="K"><path d="M10.960938 31.390625h4.980468v.355469h-4.980468zm0 0"/></clipPath><clipPath id="L"><path d="M13.949219 31.390625h4.980469v.355469h-4.980469zm0 0"/></clipPath><clipPath id="M"><path d="M16.9375 31.390625h4.980469v.355469H16.9375zm0 0"/></clipPath><clipPath id="N"><path d="M19.925781 31.390625h4.980469v.355469h-4.980469zm0 0"/></clipPath><clipPath id="O"><path d="M22.914063 31.390625h4.980468v.355469h-4.980468zm0 0"/></clipPath><clipPath id="P"><path d="M25.902344 31.390625h4.980469v.355469h-4.980469zm0 0"/></clipPath><clipPath id="Q"><path d="M28.890625 31.390625H33.875v.355469h-4.984375zm0 0"/></clipPath><clipPath id="R"><path d="M31.878906 31.390625h4.984375v.355469h-4.984375zm0 0"/></clipPath><clipPath id="S"><path d="M34.871094 31.390625h4.980469v.355469h-4.980469zm0 0"/></clipPath><clipPath id="T"><path d="M37.859375 31.390625h4.980469v.355469h-4.980469zm0 0"/></clipPath><clipPath id="U"><path d="M40.847656 31.390625h4.980469v.355469h-4.980469zm0 0"/></clipPath><clipPath id="V"><path d="M43.835938 31.390625h4.980468v.355469h-4.980468zm0 0"/></clipPath><clipPath id="W"><path d="M46.824219 31.390625h4.980469v.355469h-4.980469zm0 0"/></clipPath><clipPath id="X"><path d="M49.8125 31.390625h4.984375v.355469H49.8125zm0 0"/></clipPath><clipPath id="Y"><path d="M52.800781 31.390625h2.183594v.355469h-2.183594zm0 0"/></clipPath><clipPath id="Z"><path d="M5.378906 28.402344h1.59375v3.34375h-1.59375zm0 0"/></clipPath><clipPath id="a"><path d="M5.378906 28.402344h4.582032v3.34375H5.378906zm0 0"/></clipPath><clipPath id="b"><path d="M7.96875 28.402344h4.984375v3.34375H7.96875zm0 0"/></clipPath><clipPath id="c"><path d="M10.960938 28.402344h4.980468v3.34375h-4.980468zm0 0"/></clipPath><clipPath id="d"><path d="M13.949219 28.402344h4.980469v3.34375h-4.980469zm0 0"/></clipPath><clipPath id="e"><path d="M16.9375 28.402344h4.980469v3.34375H16.9375zm0 0"/></clipPath><clipPath id="f"><path d="M19.925781 28.402344h4.980469v3.34375h-4.980469zm0 0"/></clipPath><clipPath id="g"><path d="M22.914063 28.402344h4.980468v3.34375h-4.980468zm0 0"/></clipPath><clipPath id="h"><path d="M25.902344 28.402344h4.980469v3.34375h-4.980469zm0 0"/></clipPath><clipPath id="i"><path d="M28.890625 28.402344H33.875v3.34375h-4.984375zm0 0"/></clipPath><clipPath id="j"><path d="M31.878906 28.402344h4.984375v3.34375h-4.984375zm0 0"/></clipPath><clipPath id="k"><path d="M34.871094 28.402344h4.980469v3.34375h-4.980469zm0 0"/></clipPath><clipPath id="l"><path d="M37.859375 28.402344h4.980469v3.34375h-4.980469zm0 0"/></clipPath><clipPath id="m"><path d="M40.847656 28.402344h4.980469v3.34375h-4.980469zm0 0"/></clipPath><clipPath id="n"><path d="M43.835938 28.402344h4.980468v3.34375h-4.980468zm0 0"/></clipPath><clipPath id="o"><path d="M46.824219 28.402344h4.980469v3.34375h-4.980469zm0 0"/></clipPath><clipPath id="p"><path d="M49.8125 28.402344h4.984375v3.34375H49.8125zm0 0"/></clipPath><clipPath id="q"><path d="M52.800781 28.402344h2.183594v3.34375h-2.183594zm0 0"/></clipPath><clipPath id="r"><path d="M5.378906 27.496094h1.59375v2.898437h-1.59375zm0 0"/></clipPath><clipPath id="s"><path d="M5.378906 27.496094h4.582032v2.898437H5.378906zm0 0"/></clipPath><clipPath id="t"><path d="M7.96875 27.496094h4.984375v2.898437H7.96875zm0 0"/></clipPath><clipPath id="u"><path d="M10.960938 27.496094h4.980468v2.898437h-4.980468zm0 0"/></clipPath><clipPath id="v"><path d="M13.949219 27.496094h4.980469v2.898437h-4.980469zm0 0"/></clipPath><clipPath id="w"><path d="M16.9375 27.496094h4.980469v2.898437H16.9375zm0 0"/></clipPath><clipPath id="x"><path d="M19.925781 27.496094h4.980469v2.898437h-4.980469zm0 0"/></clipPath><clipPath id="y"><path d="M22.914063 27.496094h4.980468v2.898437h-4.980468zm0 0"/></clipPath><clipPath id="z"><path d="M25.902344 27.496094h4.980469v2.898437h-4.980469zm0 0"/></clipPath><clipPath id="AA"><path d="M28.890625 27.496094H33.875v2.898437h-4.984375zm0 0"/></clipPath><clipPath id="AB"><path d="M31.878906 27.496094h4.984375v2.898437h-4.984375zm0 0"/></clipPath><clipPath id="AC"><path d="M34.871094 27.496094h4.980469v2.898437h-4.980469zm0 0"/></clipPath><clipPath id="AD"><path d="M37.859375 27.496094h4.980469v2.898437h-4.980469zm0 0"/></clipPath><clipPath id="AE"><path d="M40.847656 27.496094h4.980469v2.898437h-4.980469zm0 0"/></clipPath><clipPath id="AF"><path d="M43.835938 27.496094h4.980468v2.898437h-4.980468zm0 0"/></clipPath><clipPath id="AG"><path d="M46.824219 27.496094h4.980469v2.898437h-4.980469zm0 0"/></clipPath><clipPath id="AH"><path d="M49.8125 27.496094h4.984375v2.898437H49.8125zm0 0"/></clipPath><clipPath id="AI"><path d="M52.800781 27.496094h2.183594v2.898437h-2.183594zm0 0"/></clipPath><clipPath id="AJ"><path d="M125.851563 31.390625h.675781v.355469h-.675781zm0 0"/></clipPath><clipPath id="AK"><path d="M125.851563 31.390625h3.664062v.355469h-3.664062zm0 0"/></clipPath><clipPath id="AL"><path d="M127.523438 31.390625h4.980468v.355469h-4.980468zm0 0"/></clipPath><clipPath id="AM"><path d="M130.511719 31.390625h4.980469v.355469h-4.980469zm0 0"/></clipPath><clipPath id="AN"><path d="M133.5 31.390625h4.984375v.355469H133.5zm0 0"/></clipPath><clipPath id="AO"><path d="M136.488281 31.390625h4.984375v.355469h-4.984375zm0 0"/></clipPath><clipPath id="AP"><path d="M139.480469 31.390625h4.980469v.355469h-4.980469zm0 0"/></clipPath><clipPath id="AQ"><path d="M142.46875 31.390625h4.980469v.355469h-4.980469zm0 0"/></clipPath><clipPath id="AR"><path d="M145.457031 31.390625h4.980469v.355469h-4.980469zm0 0"/></clipPath><clipPath id="AS"><path d="M148.445313 31.390625h4.980468v.355469h-4.980468zm0 0"/></clipPath><clipPath id="AT"><path d="M151.433594 31.390625h4.980469v.355469h-4.980469zm0 0"/></clipPath><clipPath id="AU"><path d="M154.421875 31.390625h4.980469v.355469h-4.980469zm0 0"/></clipPath><clipPath id="AV"><path d="M157.410156 31.390625h4.984375v.355469h-4.984375zm0 0"/></clipPath><clipPath id="AW"><path d="M160.402344 31.390625h4.980469v.355469h-4.980469zm0 0"/></clipPath><clipPath id="AX"><path d="M163.390625 31.390625h4.980469v.355469h-4.980469zm0 0"/></clipPath><clipPath id="AY"><path d="M166.378906 31.390625h4.828125v.355469h-4.828125zm0 0"/></clipPath><clipPath id="AZ"><path d="M169.367188 31.390625h1.839843v.355469h-1.839843zm0 0"/></clipPath><clipPath id="Aa"><path d="M125.851563 28.402344h.675781v3.34375h-.675781zm0 0"/></clipPath><clipPath id="Ab"><path d="M125.851563 28.402344h3.664062v3.34375h-3.664062zm0 0"/></clipPath><clipPath id="Ac"><path d="M127.523438 28.402344h4.980468v3.34375h-4.980468zm0 0"/></clipPath><clipPath id="Ad"><path d="M130.511719 28.402344h4.980469v3.34375h-4.980469zm0 0"/></clipPath><clipPath id="Ae"><path d="M133.5 28.402344h4.984375v3.34375H133.5zm0 0"/></clipPath><clipPath id="Af"><path d="M136.488281 28.402344h4.984375v3.34375h-4.984375zm0 0"/></clipPath><clipPath id="Ag"><path d="M139.480469 28.402344h4.980469v3.34375h-4.980469zm0 0"/></clipPath><clipPath id="Ah"><path d="M142.46875 28.402344h4.980469v3.34375h-4.980469zm0 0"/></clipPath><clipPath id="Ai"><path d="M145.457031 28.402344h4.980469v3.34375h-4.980469zm0 0"/></clipPath><clipPath id="Aj"><path d="M148.445313 28.402344h4.980468v3.34375h-4.980468zm0 0"/></clipPath><clipPath id="Ak"><path d="M151.433594 28.402344h4.980469v3.34375h-4.980469zm0 0"/></clipPath><clipPath id="Al"><path d="M154.421875 28.402344h4.980469v3.34375h-4.980469zm0 0"/></clipPath><clipPath id="Am"><path d="M157.410156 28.402344h4.984375v3.34375h-4.984375zm0 0"/></clipPath><clipPath id="An"><path d="M160.402344 28.402344h4.980469v3.34375h-4.980469zm0 0"/></clipPath><clipPath id="Ao"><path d="M163.390625 28.402344h4.980469v3.34375h-4.980469zm0 0"/></clipPath><clipPath id="Ap"><path d="M166.378906 28.402344h4.828125v3.34375h-4.828125zm0 0"/></clipPath><clipPath id="Aq"><path d="M169.367188 28.402344h1.839843v3.34375h-1.839843zm0 0"/></clipPath><clipPath id="Ar"><path d="M125.851563 27.496094h.675781v2.898437h-.675781zm0 0"/></clipPath><clipPath id="As"><path d="M125.851563 27.496094h3.664062v2.898437h-3.664062zm0 0"/></clipPath><clipPath id="At"><path d="M127.523438 27.496094h4.980468v2.898437h-4.980468zm0 0"/></clipPath><clipPath id="Au"><path d="M130.511719 27.496094h4.980469v2.898437h-4.980469zm0 0"/></clipPath><clipPath id="Av"><path d="M133.5 27.496094h4.984375v2.898437H133.5zm0 0"/></clipPath><clipPath id="Aw"><path d="M136.488281 27.496094h4.984375v2.898437h-4.984375zm0 0"/></clipPath><clipPath id="Ax"><path d="M139.480469 27.496094h4.980469v2.898437h-4.980469zm0 0"/></clipPath><clipPath id="Ay"><path d="M142.46875 27.496094h4.980469v2.898437h-4.980469zm0 0"/></clipPath><clipPath id="Az"><path d="M145.457031 27.496094h4.980469v2.898437h-4.980469zm0 0"/></clipPath><clipPath id="BA"><path d="M148.445313 27.496094h4.980468v2.898437h-4.980468zm0 0"/></clipPath><clipPath id="BB"><path d="M151.433594 27.496094h4.980469v2.898437h-4.980469zm0 0"/></clipPath><clipPath id="BC"><path d="M154.421875 27.496094h4.980469v2.898437h-4.980469zm0 0"/></clipPath><clipPath id="BD"><path d="M157.410156 27.496094h4.984375v2.898437h-4.984375zm0 0"/></clipPath><clipPath id="BE"><path d="M160.402344 27.496094h4.980469v2.898437h-4.980469zm0 0"/></clipPath><clipPath id="BF"><path d="M163.390625 27.496094h4.980469v2.898437h-4.980469zm0 0"/></clipPath><clipPath id="BG"><path d="M166.378906 27.496094h4.828125v2.898437h-4.828125zm0 0"/></clipPath><clipPath id="BH"><path d="M169.367188 27.496094h1.839843v2.898437h-1.839843zm0 0"/></clipPath><clipPath id="BI"><path d="M203.804688 31.390625h.433593v.355469h-.433593zm0 0"/></clipPath><clipPath id="BJ"><path d="M203.804688 31.390625h3.421875v.355469h-3.421875zm0 0"/></clipPath><clipPath id="BK"><path d="M205.234375 31.390625h4.980469v.355469h-4.980469zm0 0"/></clipPath><clipPath id="BL"><path d="M208.222656 31.390625h4.980469v.355469h-4.980469zm0 0"/></clipPath><clipPath id="BM"><path d="M211.210938 31.390625h4.980468v.355469h-4.980468zm0 0"/></clipPath><clipPath id="BN"><path d="M214.199219 31.390625h4.980469v.355469h-4.980469zm0 0"/></clipPath><clipPath id="BO"><path d="M217.1875 31.390625h4.980469v.355469H217.1875zm0 0"/></clipPath><clipPath id="BP"><path d="M220.175781 31.390625h4.984375v.355469h-4.984375zm0 0"/></clipPath><clipPath id="BQ"><path d="M223.164063 31.390625h4.984375v.355469h-4.984375zm0 0"/></clipPath><clipPath id="BR"><path d="M226.15625 31.390625h4.980469v.355469h-4.980469zm0 0"/></clipPath><clipPath id="BS"><path d="M229.144531 31.390625H234.125v.355469h-4.980469zm0 0"/></clipPath><clipPath id="BT"><path d="M232.132813 31.390625h4.980468v.355469h-4.980468zm0 0"/></clipPath><clipPath id="BU"><path d="M235.121094 31.390625h4.980469v.355469h-4.980469zm0 0"/></clipPath><clipPath id="BV"><path d="M238.109375 31.390625h4.980469v.355469h-4.980469zm0 0"/></clipPath><clipPath id="BW"><path d="M241.097656 31.390625h4.984375v.355469h-4.984375zm0 0"/></clipPath><clipPath id="BX"><path d="M244.085938 31.390625h4.984375v.355469h-4.984375zm0 0"/></clipPath><clipPath id="BY"><path d="M247.078125 31.390625h4.980469v.355469h-4.980469zm0 0"/></clipPath><clipPath id="BZ"><path d="M250.066406 31.390625h3.347657v.355469h-3.347657zm0 0"/></clipPath><clipPath id="Ba"><path d="M253.054688 31.390625h.359375v.355469h-.359375zm0 0"/></clipPath><clipPath id="Bb"><path d="M203.804688 28.402344h.433593v3.34375h-.433593zm0 0"/></clipPath><clipPath id="Bc"><path d="M203.804688 28.402344h3.421875v3.34375h-3.421875zm0 0"/></clipPath><clipPath id="Bd"><path d="M205.234375 28.402344h4.980469v3.34375h-4.980469zm0 0"/></clipPath><clipPath id="Be"><path d="M208.222656 28.402344h4.980469v3.34375h-4.980469zm0 0"/></clipPath><clipPath id="Bf"><path d="M211.210938 28.402344h4.980468v3.34375h-4.980468zm0 0"/></clipPath><clipPath id="Bg"><path d="M214.199219 28.402344h4.980469v3.34375h-4.980469zm0 0"/></clipPath><clipPath id="Bh"><path d="M217.1875 28.402344h4.980469v3.34375H217.1875zm0 0"/></clipPath><clipPath id="Bi"><path d="M220.175781 28.402344h4.984375v3.34375h-4.984375zm0 0"/></clipPath><clipPath id="Bj"><path d="M223.164063 28.402344h4.984375v3.34375h-4.984375zm0 0"/></clipPath><clipPath id="Bk"><path d="M226.15625 28.402344h4.980469v3.34375h-4.980469zm0 0"/></clipPath><clipPath id="Bl"><path d="M229.144531 28.402344H234.125v3.34375h-4.980469zm0 0"/></clipPath><clipPath id="Bm"><path d="M232.132813 28.402344h4.980468v3.34375h-4.980468zm0 0"/></clipPath><clipPath id="Bn"><path d="M235.121094 28.402344h4.980469v3.34375h-4.980469zm0 0"/></clipPath><clipPath id="Bo"><path d="M238.109375 28.402344h4.980469v3.34375h-4.980469zm0 0"/></clipPath><clipPath id="Bp"><path d="M241.097656 28.402344h4.984375v3.34375h-4.984375zm0 0"/></clipPath><clipPath id="Bq"><path d="M244.085938 28.402344h4.984375v3.34375h-4.984375zm0 0"/></clipPath><clipPath id="Br"><path d="M247.078125 28.402344h4.980469v3.34375h-4.980469zm0 0"/></clipPath><clipPath id="Bs"><path d="M250.066406 28.402344h3.347657v3.34375h-3.347657zm0 0"/></clipPath><clipPath id="Bt"><path d="M253.054688 28.402344h.359375v3.34375h-.359375zm0 0"/></clipPath><clipPath id="Bu"><path d="M203.804688 27.496094h.433593v2.898437h-.433593zm0 0"/></clipPath><clipPath id="Bv"><path d="M203.804688 27.496094h3.421875v2.898437h-3.421875zm0 0"/></clipPath><clipPath id="Bw"><path d="M205.234375 27.496094h4.980469v2.898437h-4.980469zm0 0"/></clipPath><clipPath id="Bx"><path d="M208.222656 27.496094h4.980469v2.898437h-4.980469zm0 0"/></clipPath><clipPath id="By"><path d="M211.210938 27.496094h4.980468v2.898437h-4.980468zm0 0"/></clipPath><clipPath id="Bz"><path d="M214.199219 27.496094h4.980469v2.898437h-4.980469zm0 0"/></clipPath><clipPath id="CA"><path d="M217.1875 27.496094h4.980469v2.898437H217.1875zm0 0"/></clipPath><clipPath id="CB"><path d="M220.175781 27.496094h4.984375v2.898437h-4.984375zm0 0"/></clipPath><clipPath id="CC"><path d="M223.164063 27.496094h4.984375v2.898437h-4.984375zm0 0"/></clipPath><clipPath id="CD"><path d="M226.15625 27.496094h4.980469v2.898437h-4.980469zm0 0"/></clipPath><clipPath id="CE"><path d="M229.144531 27.496094H234.125v2.898437h-4.980469zm0 0"/></clipPath><clipPath id="CF"><path d="M232.132813 27.496094h4.980468v2.898437h-4.980468zm0 0"/></clipPath><clipPath id="CG"><path d="M235.121094 27.496094h4.980469v2.898437h-4.980469zm0 0"/></clipPath><clipPath id="CH"><path d="M238.109375 27.496094h4.980469v2.898437h-4.980469zm0 0"/></clipPath><clipPath id="CI"><path d="M241.097656 27.496094h4.984375v2.898437h-4.984375zm0 0"/></clipPath><clipPath id="CJ"><path d="M244.085938 27.496094h4.984375v2.898437h-4.984375zm0 0"/></clipPath><clipPath id="CK"><path d="M247.078125 27.496094h4.980469v2.898437h-4.980469zm0 0"/></clipPath><clipPath id="CL"><path d="M250.066406 27.496094h3.347657v2.898437h-3.347657zm0 0"/></clipPath><clipPath id="CM"><path d="M253.054688 27.496094h.359375v2.898437h-.359375zm0 0"/></clipPath><clipPath id="CN"><path d="M324.28125 31.390625h2.496094v.355469h-2.496094zm0 0"/></clipPath><clipPath id="CO"><path d="M324.785156 31.390625h4.980469v.355469h-4.980469zm0 0"/></clipPath><clipPath id="CP"><path d="M327.773438 31.390625h4.984375v.355469h-4.984375zm0 0"/></clipPath><clipPath id="CQ"><path d="M330.765625 31.390625h4.980469v.355469h-4.980469zm0 0"/></clipPath><clipPath id="CR"><path d="M333.753906 31.390625h4.980469v.355469h-4.980469zm0 0"/></clipPath><clipPath id="CS"><path d="M336.742188 31.390625h4.980468v.355469h-4.980468zm0 0"/></clipPath><clipPath id="CT"><path d="M339.730469 31.390625h4.980469v.355469h-4.980469zm0 0"/></clipPath><clipPath id="CU"><path d="M342.71875 31.390625h4.980469v.355469h-4.980469zm0 0"/></clipPath><clipPath id="CV"><path d="M345.707031 31.390625h4.980469v.355469h-4.980469zm0 0"/></clipPath><clipPath id="CW"><path d="M348.695313 31.390625h4.984375v.355469h-4.984375zm0 0"/></clipPath><clipPath id="CX"><path d="M351.6875 31.390625h4.980469v.355469H351.6875zm0 0"/></clipPath><clipPath id="CY"><path d="M354.675781 31.390625h4.980469v.355469h-4.980469zm0 0"/></clipPath><clipPath id="CZ"><path d="M357.664063 31.390625h4.980468v.355469h-4.980468zm0 0"/></clipPath><clipPath id="Ca"><path d="M360.652344 31.390625h4.980469v.355469h-4.980469zm0 0"/></clipPath><clipPath id="Cb"><path d="M363.640625 31.390625h4.980469v.355469h-4.980469zm0 0"/></clipPath><clipPath id="Cc"><path d="M366.628906 31.390625h3.007813v.355469h-3.007813zm0 0"/></clipPath><clipPath id="Cd"><path d="M369.617188 31.390625h.019531v.355469h-.019531zm0 0"/></clipPath><clipPath id="Ce"><path d="M324.28125 28.402344h2.496094v3.34375h-2.496094zm0 0"/></clipPath><clipPath id="Cf"><path d="M324.785156 28.402344h4.980469v3.34375h-4.980469zm0 0"/></clipPath><clipPath id="Cg"><path d="M327.773438 28.402344h4.984375v3.34375h-4.984375zm0 0"/></clipPath><clipPath id="Ch"><path d="M330.765625 28.402344h4.980469v3.34375h-4.980469zm0 0"/></clipPath><clipPath id="Ci"><path d="M333.753906 28.402344h4.980469v3.34375h-4.980469zm0 0"/></clipPath><clipPath id="Cj"><path d="M336.742188 28.402344h4.980468v3.34375h-4.980468zm0 0"/></clipPath><clipPath id="Ck"><path d="M339.730469 28.402344h4.980469v3.34375h-4.980469zm0 0"/></clipPath><clipPath id="Cl"><path d="M342.71875 28.402344h4.980469v3.34375h-4.980469zm0 0"/></clipPath><clipPath id="Cm"><path d="M345.707031 28.402344h4.980469v3.34375h-4.980469zm0 0"/></clipPath><clipPath id="Cn"><path d="M348.695313 28.402344h4.984375v3.34375h-4.984375zm0 0"/></clipPath><clipPath id="Co"><path d="M351.6875 28.402344h4.980469v3.34375H351.6875zm0 0"/></clipPath><clipPath id="Cp"><path d="M354.675781 28.402344h4.980469v3.34375h-4.980469zm0 0"/></clipPath><clipPath id="Cq"><path d="M357.664063 28.402344h4.980468v3.34375h-4.980468zm0 0"/></clipPath><clipPath id="Cr"><path d="M360.652344 28.402344h4.980469v3.34375h-4.980469zm0 0"/></clipPath><clipPath id="Cs"><path d="M363.640625 28.402344h4.980469v3.34375h-4.980469zm0 0"/></clipPath><clipPath id="Ct"><path d="M366.628906 28.402344h3.007813v3.34375h-3.007813zm0 0"/></clipPath><clipPath id="Cu"><path d="M369.617188 28.402344h.019531v3.34375h-.019531zm0 0"/></clipPath><clipPath id="Cv"><path d="M324.28125 27.496094h2.496094v2.898437h-2.496094zm0 0"/></clipPath><clipPath id="Cw"><path d="M324.785156 27.496094h4.980469v2.898437h-4.980469zm0 0"/></clipPath><clipPath id="Cx"><path d="M327.773438 27.496094h4.984375v2.898437h-4.984375zm0 0"/></clipPath><clipPath id="Cy"><path d="M330.765625 27.496094h4.980469v2.898437h-4.980469zm0 0"/></clipPath><clipPath id="Cz"><path d="M333.753906 27.496094h4.980469v2.898437h-4.980469zm0 0"/></clipPath><clipPath id="DA"><path d="M336.742188 27.496094h4.980468v2.898437h-4.980468zm0 0"/></clipPath><clipPath id="DB"><path d="M339.730469 27.496094h4.980469v2.898437h-4.980469zm0 0"/></clipPath><clipPath id="DC"><path d="M342.71875 27.496094h4.980469v2.898437h-4.980469zm0 0"/></clipPath><clipPath id="DD"><path d="M345.707031 27.496094h4.980469v2.898437h-4.980469zm0 0"/></clipPath><clipPath id="DE"><path d="M348.695313 27.496094h4.984375v2.898437h-4.984375zm0 0"/></clipPath><clipPath id="DF"><path d="M351.6875 27.496094h4.980469v2.898437H351.6875zm0 0"/></clipPath><clipPath id="DG"><path d="M354.675781 27.496094h4.980469v2.898437h-4.980469zm0 0"/></clipPath><clipPath id="DH"><path d="M357.664063 27.496094h4.980468v2.898437h-4.980468zm0 0"/></clipPath><clipPath id="DI"><path d="M360.652344 27.496094h4.980469v2.898437h-4.980469zm0 0"/></clipPath><clipPath id="DJ"><path d="M363.640625 27.496094h4.980469v2.898437h-4.980469zm0 0"/></clipPath><clipPath id="DK"><path d="M366.628906 27.496094h3.007813v2.898437h-3.007813zm0 0"/></clipPath><clipPath id="DL"><path d="M369.617188 27.496094h.019531v2.898437h-.019531zm0 0"/></clipPath><path id="DM" d="M5.9765625 32.386719l3.0898435 3.0898435"/><path id="DN" d="M8.96484375 32.386719l3.08984425 3.0898435"/><path id="DO" d="M11.95703125 32.386719l3.08593775 3.0898435"/><path id="DP" d="M14.9453125 32.386719l3.0859375 3.0898435"/><path id="DQ" d="M17.93359375 32.386719l3.08593725 3.0898435"/><path id="DR" d="M20.921875 32.386719l3.089844 3.0898435"/><path id="DS" d="M29.88671875 32.386719l3.08984325 3.0898435"/><path id="DT" d="M44.83203125 32.386719l3.08984375 3.0898435"/><path id="DU" d="M5.9765625 29.398437l3.0898435 3.0898442"/><path id="DV" d="M8.96484375 29.398437l3.08984425 3.0898442"/><path id="DW" d="M11.95703125 29.398437l3.08593775 3.0898442"/><path id="DX" d="M14.9453125 29.398437l3.0859375 3.0898442"/><path id="DY" d="M17.93359375 29.398437l3.08593725 3.0898442"/><path id="DZ" d="M20.921875 29.398437l3.089844 3.0898442"/><path id="Da" d="M29.88671875 29.398437l3.08984325 3.0898442"/><path id="Db" d="M44.83203125 29.398437l3.08984375 3.0898442"/></defs><g clip-path="url(#H)" class="B C D E"><path d="M2.98828125 32.386719L6.078125 35.4765625"/></g><g clip-path="url(#I)" class="B C D E"><use xlink:href="#DM"/></g><g clip-path="url(#J)" class="B C D E"><use xlink:href="#DN"/></g><g clip-path="url(#K)" class="B C D E"><use xlink:href="#DO"/></g><g clip-path="url(#L)" class="B C D E"><use xlink:href="#DP"/></g><g clip-path="url(#M)" class="B C D E"><use xlink:href="#DQ"/></g><g clip-path="url(#N)" class="B C D E"><use xlink:href="#DR"/></g><g clip-path="url(#O)" class="B C D E"><path d="M23.91015625 32.386719L27 35.4765625"/></g><g clip-path="url(#P)" class="B C D E"><path d="M26.8984375 32.386719l3.0898435 3.0898435"/></g><g clip-path="url(#Q)" class="B C D E"><use xlink:href="#DS"/></g><g clip-path="url(#R)" class="B C D E"><path d="M32.87890625 32.386719l3.08593775 3.0898435"/></g><g clip-path="url(#S)" class="B C D E"><path d="M35.8671875 32.386719l3.0859375 3.0898435"/></g><g clip-path="url(#T)" class="B C D E"><path d="M38.85546875 32.386719l3.08593725 3.0898435"/></g><g clip-path="url(#U)" class="B C D E"><path d="M41.84375 32.386719l3.089844 3.0898435"/></g><g clip-path="url(#V)" class="B C D E"><use xlink:href="#DT"/></g><g clip-path="url(#W)" class="B C D E"><path d="M47.8203125 32.386719l3.0898435 3.0898435"/></g><g clip-path="url(#X)" class="B C D E"><path d="M50.80859375 32.386719l3.08984325 3.0898435"/></g><g clip-path="url(#Y)" class="B C D E"><path d="M53.80078125 32.386719l3.08593775 3.0898435"/></g><g clip-path="url(#Z)" class="B C D E"><path d="M2.98828125 29.398437L6.078125 32.4882812"/></g><g clip-path="url(#a)" class="B C D E"><use xlink:href="#DU"/></g><g clip-path="url(#b)" class="B C D E"><use xlink:href="#DV"/></g><g clip-path="url(#c)" class="B C D E"><use xlink:href="#DW"/></g><g clip-path="url(#d)" class="B C D E"><use xlink:href="#DX"/></g><g clip-path="url(#e)" class="B C D E"><use xlink:href="#DY"/></g><g clip-path="url(#f)" class="B C D E"><use xlink:href="#DZ"/></g><g clip-path="url(#g)" class="B C D E"><path d="M23.91015625 29.398437L27 32.4882812"/></g><g clip-path="url(#h)" class="B C D E"><path d="M26.8984375 29.398437l3.0898435 3.0898442"/></g><g clip-path="url(#i)" class="B C D E"><use xlink:href="#Da"/></g><g clip-path="url(#j)" class="B C D E"><path d="M32.87890625 29.398437l3.08593775 3.0898442"/></g><g clip-path="url(#k)" class="B C D E"><path d="M35.8671875 29.398437l3.0859375 3.0898442"/></g><g clip-path="url(#l)" class="B C D E"><path d="M38.85546875 29.398437l3.08593725 3.0898442"/></g><g clip-path="url(#m)" class="B C D E"><path d="M41.84375 29.398437l3.089844 3.0898442"/></g><g clip-path="url(#n)" class="B C D E"><use xlink:href="#Db"/></g><g clip-path="url(#o)" class="B C D E"><path d="M47.8203125 29.398437l3.0898435 3.0898442"/></g><g clip-path="url(#p)" class="B C D E"><path d="M50.80859375 29.398437l3.08984325 3.0898442"/></g><g clip-path="url(#q)" class="B C D E"><path d="M53.80078125 29.398437l3.08593775 3.0898442"/></g><g clip-path="url(#r)" class="B C D E"><path d="M2.98828125 26.410156L6.078125 29.5"/></g><g clip-path="url(#s)" class="B C D E"><path d="M5.9765625 26.410156L9.066406 29.5"/></g><g clip-path="url(#t)" class="B C D E"><path d="M8.96484375 26.410156L12.054688 29.5"/></g><g clip-path="url(#u)" class="B C D E"><path d="M11.95703125 26.410156L15.042969 29.5"/></g><g clip-path="url(#v)" class="B C D E"><path d="M14.9453125 26.410156L18.03125 29.5"/></g><g clip-path="url(#w)" class="B C D E"><path d="M17.93359375 26.410156L21.019531 29.5"/></g><g clip-path="url(#x)" class="B C D E"><path d="M20.921875 26.410156L24.011719 29.5"/></g><g clip-path="url(#y)" class="B C D E"><path d="M23.91015625 26.410156L27 29.5"/></g><g clip-path="url(#z)" class="B C D E"><path d="M26.8984375 26.410156L29.988281 29.5"/></g><g clip-path="url(#AA)" class="B C D E"><path d="M29.88671875 26.410156L32.976562 29.5"/></g><g clip-path="url(#AB)" class="B C D E"><path d="M32.87890625 26.410156L35.964844 29.5"/></g><g clip-path="url(#AC)" class="B C D E"><path d="M35.8671875 26.410156L38.953125 29.5"/></g><g clip-path="url(#AD)" class="B C D E"><path d="M38.85546875 26.410156L41.941406 29.5"/></g><g clip-path="url(#AE)" class="B C D E"><path d="M41.84375 26.410156L44.933594 29.5"/></g><g clip-path="url(#AF)" class="B C D E"><path d="M44.83203125 26.410156L47.921875 29.5"/></g><g clip-path="url(#AG)" class="B C D E"><path d="M47.8203125 26.410156L50.910156 29.5"/></g><g clip-path="url(#AH)" class="B C D E"><path d="M50.80859375 26.410156L53.898437 29.5"/></g><g clip-path="url(#AI)" class="B C D E"><path d="M53.80078125 26.410156L56.886719 29.5"/></g><g clip-path="url(#AJ)" class="B C D E"><path d="M122.54296875 32.386719l3.08593725 3.0898435"/></g><g clip-path="url(#AK)" class="B C D E"><path d="M125.53125 32.386719l3.089844 3.0898435"/></g><g clip-path="url(#AL)" class="B C D E"><path d="M128.51953125 32.386719l3.08984375 3.0898435"/></g><g clip-path="url(#AM)" class="B C D E"><path d="M131.5078125 32.386719l3.0898435 3.0898435"/></g><g clip-path="url(#AN)" class="B C D E"><path d="M134.49609375 32.386719l3.08984325 3.0898435"/></g><g clip-path="url(#AO)" class="B C D E"><path d="M137.484375 32.386719l3.089844 3.0898435"/></g><g clip-path="url(#AP)" class="B C D E"><path d="M140.4765625 32.386719l3.0859375 3.0898435"/></g><g clip-path="url(#AQ)" class="B C D E"><path d="M143.46484375 32.386719l3.08593725 3.0898435"/></g><g clip-path="url(#AR)" class="B C D E"><path d="M146.453125 32.386719l3.089844 3.0898435"/></g><g clip-path="url(#AS)" class="B C D E"><path d="M149.44140625 32.386719l3.08984375 3.0898435"/></g><g clip-path="url(#AT)" class="B C D E"><path d="M152.4296875 32.386719l3.0898435 3.0898435"/></g><g clip-path="url(#AU)" class="B C D E"><path d="M155.41796875 32.386719l3.08984325 3.0898435"/></g><g clip-path="url(#AV)" class="B C D E"><path d="M158.40625 32.386719l3.089844 3.0898435"/></g><g clip-path="url(#AW)" class="B C D E"><path d="M161.3984375 32.386719l3.0859375 3.0898435"/></g><g clip-path="url(#AX)" class="B C D E"><path d="M164.38671875 32.386719l3.08593725 3.0898435"/></g><g clip-path="url(#AY)" class="B C D E"><path d="M167.375 32.386719l3.089844 3.0898435"/></g><g clip-path="url(#AZ)" class="B C D E"><path d="M170.36328125 32.386719l3.08984375 3.0898435"/></g><g clip-path="url(#Aa)" class="B C D E"><path d="M122.54296875 29.398437l3.08593725 3.0898442"/></g><g clip-path="url(#Ab)" class="B C D E"><path d="M125.53125 29.398437l3.089844 3.0898442"/></g><g clip-path="url(#Ac)" class="B C D E"><path d="M128.51953125 29.398437l3.08984375 3.0898442"/></g><g clip-path="url(#Ad)" class="B C D E"><path d="M131.5078125 29.398437l3.0898435 3.0898442"/></g><g clip-path="url(#Ae)" class="B C D E"><path d="M134.49609375 29.398437l3.08984325 3.0898442"/></g><g clip-path="url(#Af)" class="B C D E"><path d="M137.484375 29.398437l3.089844 3.0898442"/></g><g clip-path="url(#Ag)" class="B C D E"><path d="M140.4765625 29.398437l3.0859375 3.0898442"/></g><g clip-path="url(#Ah)" class="B C D E"><path d="M143.46484375 29.398437l3.08593725 3.0898442"/></g><g clip-path="url(#Ai)" class="B C D E"><path d="M146.453125 29.398437l3.089844 3.0898442"/></g><g clip-path="url(#Aj)" class="B C D E"><path d="M149.44140625 29.398437l3.08984375 3.0898442"/></g><g clip-path="url(#Ak)" class="B C D E"><path d="M152.4296875 29.398437l3.0898435 3.0898442"/></g><g clip-path="url(#Al)" class="B C D E"><path d="M155.41796875 29.398437l3.08984325 3.0898442"/></g><g clip-path="url(#Am)" class="B C D E"><path d="M158.40625 29.398437l3.089844 3.0898442"/></g><g clip-path="url(#An)" class="B C D E"><path d="M161.3984375 29.398437l3.0859375 3.0898442"/></g><g clip-path="url(#Ao)" class="B C D E"><path d="M164.38671875 29.398437l3.08593725 3.0898442"/></g><g clip-path="url(#Ap)" class="B C D E"><path d="M167.375 29.398437l3.089844 3.0898442"/></g><g clip-path="url(#Aq)" class="B C D E"><path d="M170.36328125 29.398437l3.08984375 3.0898442"/></g><g clip-path="url(#Ar)" class="B C D E"><path d="M122.54296875 26.410156L125.628906 29.5"/></g><g clip-path="url(#As)" class="B C D E"><path d="M125.53125 26.410156L128.621094 29.5"/></g><g clip-path="url(#At)" class="B C D E"><path d="M128.51953125 26.410156L131.609375 29.5"/></g><g clip-path="url(#Au)" class="B C D E"><path d="M131.5078125 26.410156L134.597656 29.5"/></g><g clip-path="url(#Av)" class="B C D E"><path d="M134.49609375 26.410156L137.585937 29.5"/></g><g clip-path="url(#Aw)" class="B C D E"><path d="M137.484375 26.410156L140.574219 29.5"/></g><g clip-path="url(#Ax)" class="B C D E"><path d="M140.4765625 26.410156L143.5625 29.5"/></g><g clip-path="url(#Ay)" class="B C D E"><path d="M143.46484375 26.410156L146.550781 29.5"/></g><g clip-path="url(#Az)" class="B C D E"><path d="M146.453125 26.410156L149.542969 29.5"/></g><g clip-path="url(#BA)" class="B C D E"><path d="M149.44140625 26.410156L152.53125 29.5"/></g><g clip-path="url(#BB)" class="B C D E"><path d="M152.4296875 26.410156L155.519531 29.5"/></g><g clip-path="url(#BC)" class="B C D E"><path d="M155.41796875 26.410156L158.507812 29.5"/></g><g clip-path="url(#BD)" class="B C D E"><path d="M158.40625 26.410156L161.496094 29.5"/></g><g clip-path="url(#BE)" class="B C D E"><path d="M161.3984375 26.410156L164.484375 29.5"/></g><g clip-path="url(#BF)" class="B C D E"><path d="M164.38671875 26.410156L167.472656 29.5"/></g><g clip-path="url(#BG)" class="B C D E"><path d="M167.375 26.410156L170.464844 29.5"/></g><g clip-path="url(#BH)" class="B C D E"><path d="M170.36328125 26.410156L173.453125 29.5"/></g><g class="D B F"><g class="K"><path d="M5.378906 31.74609375h169.285156"/><path d="M172.511719 28.636719c.464843 1.867187 1.503906 2.746093 2.550781 3.10937475-1.046875.36328125-2.085938 1.24609325-2.550781 3.11328125" class="L M"/></g><path d="M90.41796875 27.496094V36" class="C"/></g><use xlink:href="#A" x="87.928" y="46.669" class="G"/><path d="M56.976562 31.74609375c0-1.09765675-.890625-1.99218775-1.992187-1.99218775s-1.992188.894531-1.992188 1.99218775.894532 1.99218725 1.992188 1.99218725 1.992187-.890625 1.992187-1.99218725zm0 0" class="B C F N"/><g class="G"><use xlink:href="#B" x="48.557" y="46.06"/><use xlink:href="#E" x="56.306" y="46.06"/></g><path d="M127.84375 31.74609375c0-1.09765675-.890625-1.99218775-1.992188-1.99218775s-1.992187.894531-1.992187 1.99218775.894531 1.99218725 1.992187 1.99218725 1.992188-.890625 1.992188-1.99218725zm0 0" class="B C F N"/><g class="G"><use xlink:href="#E" x="123.298" y="44.538"/><use xlink:href="#C" x="75.48" y="15.774"/></g><use xlink:href="#F" x="78.248" y="15.774" class="J"/><g class="G"><use xlink:href="#C" x="84.198" y="15.774"/><use xlink:href="#G" x="89.732" y="15.774"/><use xlink:href="#E" x="100.250513" y="15.774"/></g><g clip-path="url(#BI)" class="B C D E"><path d="M200.25 32.386719l3.089844 3.0898435"/></g><g clip-path="url(#BJ)" class="B C D E"><path d="M203.2421875 32.386719l3.0859375 3.0898435"/></g><g clip-path="url(#BK)" class="B C D E"><path d="M206.23046875 32.386719l3.08593725 3.0898435"/></g><g clip-path="url(#BL)" class="B C D E"><path d="M209.21875 32.386719l3.085938 3.0898435"/></g><g clip-path="url(#BM)" class="B C D E"><path d="M212.20703125 32.386719l3.08984375 3.0898435"/></g><g clip-path="url(#BN)" class="B C D E"><path d="M215.1953125 32.386719l3.0898435 3.0898435"/></g><g clip-path="url(#BO)" class="B C D E"><path d="M218.18359375 32.386719l3.08984325 3.0898435"/></g><g clip-path="url(#BP)" class="B C D E"><path d="M221.171875 32.386719l3.089844 3.0898435"/></g><g clip-path="url(#BQ)" class="B C D E"><path d="M224.1640625 32.386719L227.25 35.4765625"/></g><g clip-path="url(#BR)" class="B C D E"><path d="M227.15234375 32.386719l3.08593725 3.0898435"/></g><g clip-path="url(#BS)" class="B C D E"><path d="M230.140625 32.386719l3.085937 3.0898435"/></g><g clip-path="url(#BT)" class="B C D E"><path d="M233.12890625 32.386719l3.08984375 3.0898435"/></g><g clip-path="url(#BU)" class="B C D E"><path d="M236.1171875 32.386719l3.0898435 3.0898435"/></g><g clip-path="url(#BV)" class="B C D E"><path d="M239.10546875 32.386719l3.08984325 3.0898435"/></g><g clip-path="url(#BW)" class="B C D E"><path d="M242.09375 32.386719l3.089844 3.0898435"/></g><g clip-path="url(#BX)" class="B C D E"><path d="M245.0859375 32.386719l3.0859375 3.0898435"/></g><g clip-path="url(#BY)" class="B C D E"><path d="M248.07421875 32.386719l3.08593725 3.0898435"/></g><g clip-path="url(#BZ)" class="B C D E"><path d="M251.0625 32.386719l3.085937 3.0898435"/></g><g clip-path="url(#Ba)" class="B C D E"><path d="M254.05078125 32.386719l3.08984375 3.0898435"/></g><g clip-path="url(#Bb)" class="B C D E"><path d="M200.25 29.398437l3.089844 3.0898442"/></g><g clip-path="url(#Bc)" class="B C D E"><path d="M203.2421875 29.398437l3.0859375 3.0898442"/></g><g clip-path="url(#Bd)" class="B C D E"><path d="M206.23046875 29.398437l3.08593725 3.0898442"/></g><g clip-path="url(#Be)" class="B C D E"><path d="M209.21875 29.398437l3.085938 3.0898442"/></g><g clip-path="url(#Bf)" class="B C D E"><path d="M212.20703125 29.398437l3.08984375 3.0898442"/></g><g clip-path="url(#Bg)" class="B C D E"><path d="M215.1953125 29.398437l3.0898435 3.0898442"/></g><g clip-path="url(#Bh)" class="B C D E"><path d="M218.18359375 29.398437l3.08984325 3.0898442"/></g><g clip-path="url(#Bi)" class="B C D E"><path d="M221.171875 29.398437l3.089844 3.0898442"/></g><g clip-path="url(#Bj)" class="B C D E"><path d="M224.1640625 29.398437L227.25 32.4882812"/></g><g clip-path="url(#Bk)" class="B C D E"><path d="M227.15234375 29.398437l3.08593725 3.0898442"/></g><g clip-path="url(#Bl)" class="B C D E"><path d="M230.140625 29.398437l3.085937 3.0898442"/></g><g clip-path="url(#Bm)" class="B C D E"><path d="M233.12890625 29.398437l3.08984375 3.0898442"/></g><g clip-path="url(#Bn)" class="B C D E"><path d="M236.1171875 29.398437l3.0898435 3.0898442"/></g><g clip-path="url(#Bo)" class="B C D E"><path d="M239.10546875 29.398437l3.08984325 3.0898442"/></g><g clip-path="url(#Bp)" class="B C D E"><path d="M242.09375 29.398437l3.089844 3.0898442"/></g><g clip-path="url(#Bq)" class="B C D E"><path d="M245.0859375 29.398437l3.0859375 3.0898442"/></g><g clip-path="url(#Br)" class="B C D E"><path d="M248.07421875 29.398437l3.08593725 3.0898442"/></g><g clip-path="url(#Bs)" class="B C D E"><path d="M251.0625 29.398437l3.085937 3.0898442"/></g><g clip-path="url(#Bt)" class="B C D E"><path d="M254.05078125 29.398437l3.08984375 3.0898442"/></g><g clip-path="url(#Bu)" class="B C D E"><path d="M200.25 26.410156L203.339844 29.5"/></g><g clip-path="url(#Bv)" class="B C D E"><path d="M203.2421875 26.410156L206.328125 29.5"/></g><g clip-path="url(#Bw)" class="B C D E"><path d="M206.23046875 26.410156L209.316406 29.5"/></g><g clip-path="url(#Bx)" class="B C D E"><path d="M209.21875 26.410156L212.304688 29.5"/></g><g clip-path="url(#By)" class="B C D E"><path d="M212.20703125 26.410156L215.296875 29.5"/></g><g clip-path="url(#Bz)" class="B C D E"><path d="M215.1953125 26.410156L218.285156 29.5"/></g><g clip-path="url(#CA)" class="B C D E"><path d="M218.18359375 26.410156L221.273437 29.5"/></g><g clip-path="url(#CB)" class="B C D E"><path d="M221.171875 26.410156L224.261719 29.5"/></g><g clip-path="url(#CC)" class="B C D E"><path d="M224.1640625 26.410156L227.25 29.5"/></g><g clip-path="url(#CD)" class="B C D E"><path d="M227.15234375 26.410156L230.238281 29.5"/></g><g clip-path="url(#CE)" class="B C D E"><path d="M230.140625 26.410156L233.226562 29.5"/></g><g clip-path="url(#CF)" class="B C D E"><path d="M233.12890625 26.410156L236.21875 29.5"/></g><g clip-path="url(#CG)" class="B C D E"><path d="M236.1171875 26.410156L239.207031 29.5"/></g><g clip-path="url(#CH)" class="B C D E"><path d="M239.10546875 26.410156L242.195312 29.5"/></g><g clip-path="url(#CI)" class="B C D E"><path d="M242.09375 26.410156L245.183594 29.5"/></g><g clip-path="url(#CJ)" class="B C D E"><path d="M245.0859375 26.410156L248.171875 29.5"/></g><g clip-path="url(#CK)" class="B C D E"><path d="M248.07421875 26.410156L251.160156 29.5"/></g><g clip-path="url(#CL)" class="B C D E"><path d="M251.0625 26.410156L254.148437 29.5"/></g><g clip-path="url(#CM)" class="B C D E"><path d="M254.05078125 26.410156L257.140625 29.5"/></g><g clip-path="url(#CN)" class="B C D E"><path d="M322.79296875 32.386719l3.08984425 3.0898435"/></g><g clip-path="url(#CO)" class="B C D E"><path d="M325.78125 32.386719l3.089844 3.0898435"/></g><g clip-path="url(#CP)" class="B C D E"><path d="M328.76953125 32.386719l3.08984375 3.0898435"/></g><g clip-path="url(#CQ)" class="B C D E"><path d="M331.76171875 32.386719l3.08593725 3.0898435"/></g><g clip-path="url(#CR)" class="B C D E"><path d="M334.75 32.386719l3.085937 3.0898435"/></g><g clip-path="url(#CS)" class="B C D E"><path d="M337.73828125 32.386719l3.08984375 3.0898435"/></g><g clip-path="url(#CT)" class="B C D E"><path d="M340.7265625 32.386719l3.0898435 3.0898435"/></g><g clip-path="url(#CU)" class="B C D E"><path d="M343.71484375 32.386719l3.08984325 3.0898435"/></g><g clip-path="url(#CV)" class="B C D E"><path d="M346.703125 32.386719l3.089844 3.0898435"/></g><g clip-path="url(#CW)" class="B C D E"><path d="M349.69140625 32.386719l3.08984375 3.0898435"/></g><g clip-path="url(#CX)" class="B C D E"><path d="M352.68359375 32.386719l3.08593725 3.0898435"/></g><g clip-path="url(#CY)" class="B C D E"><path d="M355.671875 32.386719l3.085938 3.0898435"/></g><g clip-path="url(#CZ)" class="B C D E"><path d="M358.66015625 32.386719L361.75 35.4765625"/></g><g clip-path="url(#Ca)" class="B C D E"><path d="M361.6484375 32.386719l3.0898435 3.0898435"/></g><g clip-path="url(#Cb)" class="B C D E"><path d="M364.63671875 32.386719l3.08984425 3.0898435"/></g><g clip-path="url(#Cc)" class="B C D E"><path d="M367.625 32.386719l3.089844 3.0898435"/></g><g clip-path="url(#Cd)" class="B C D E"><path d="M370.61328125 32.386719l3.08984375 3.0898435"/></g><g clip-path="url(#Ce)" class="B C D E"><path d="M322.79296875 29.398437l3.08984425 3.0898442"/></g><g clip-path="url(#Cf)" class="B C D E"><path d="M325.78125 29.398437l3.089844 3.0898442"/></g><g clip-path="url(#Cg)" class="B C D E"><path d="M328.76953125 29.398437l3.08984375 3.0898442"/></g><g clip-path="url(#Ch)" class="B C D E"><path d="M331.76171875 29.398437l3.08593725 3.0898442"/></g><g clip-path="url(#Ci)" class="B C D E"><path d="M334.75 29.398437l3.085937 3.0898442"/></g><g clip-path="url(#Cj)" class="B C D E"><path d="M337.73828125 29.398437l3.08984375 3.0898442"/></g><g clip-path="url(#Ck)" class="B C D E"><path d="M340.7265625 29.398437l3.0898435 3.0898442"/></g><g clip-path="url(#Cl)" class="B C D E"><path d="M343.71484375 29.398437l3.08984325 3.0898442"/></g><g clip-path="url(#Cm)" class="B C D E"><path d="M346.703125 29.398437l3.089844 3.0898442"/></g><g clip-path="url(#Cn)" class="B C D E"><path d="M349.69140625 29.398437l3.08984375 3.0898442"/></g><g clip-path="url(#Co)" class="B C D E"><path d="M352.68359375 29.398437l3.08593725 3.0898442"/></g><g clip-path="url(#Cp)" class="B C D E"><path d="M355.671875 29.398437l3.085938 3.0898442"/></g><g clip-path="url(#Cq)" class="B C D E"><path d="M358.66015625 29.398437L361.75 32.4882812"/></g><g clip-path="url(#Cr)" class="B C D E"><path d="M361.6484375 29.398437l3.0898435 3.0898442"/></g><g clip-path="url(#Cs)" class="B C D E"><path d="M364.63671875 29.398437l3.08984425 3.0898442"/></g><g clip-path="url(#Ct)" class="B C D E"><path d="M367.625 29.398437l3.089844 3.0898442"/></g><g clip-path="url(#Cu)" class="B C D E"><path d="M370.61328125 29.398437l3.08984375 3.0898442"/></g><g clip-path="url(#Cv)" class="B C D E"><path d="M322.79296875 26.410156L325.882813 29.5"/></g><g clip-path="url(#Cw)" class="B C D E"><path d="M325.78125 26.410156L328.871094 29.5"/></g><g clip-path="url(#Cx)" class="B C D E"><path d="M328.76953125 26.410156L331.859375 29.5"/></g><g clip-path="url(#Cy)" class="B C D E"><path d="M331.76171875 26.410156L334.847656 29.5"/></g><g clip-path="url(#Cz)" class="B C D E"><path d="M334.75 26.410156L337.835937 29.5"/></g><g clip-path="url(#DA)" class="B C D E"><path d="M337.73828125 26.410156L340.828125 29.5"/></g><g clip-path="url(#DB)" class="B C D E"><path d="M340.7265625 26.410156L343.816406 29.5"/></g><g clip-path="url(#DC)" class="B C D E"><path d="M343.71484375 26.410156L346.804687 29.5"/></g><g clip-path="url(#DD)" class="B C D E"><path d="M346.703125 26.410156L349.792969 29.5"/></g><g clip-path="url(#DE)" class="B C D E"><path d="M349.69140625 26.410156L352.78125 29.5"/></g><g clip-path="url(#DF)" class="B C D E"><path d="M352.68359375 26.410156L355.769531 29.5"/></g><g clip-path="url(#DG)" class="B C D E"><path d="M355.671875 26.410156L358.757813 29.5"/></g><g clip-path="url(#DH)" class="B C D E"><path d="M358.66015625 26.410156L361.75 29.5"/></g><g clip-path="url(#DI)" class="B C D E"><path d="M361.6484375 26.410156L364.738281 29.5"/></g><g clip-path="url(#DJ)" class="B C D E"><path d="M364.63671875 26.410156L367.726563 29.5"/></g><g clip-path="url(#DK)" class="B C D E"><path d="M367.625 26.410156L370.714844 29.5"/></g><g clip-path="url(#DL)" class="B C D E"><path d="M370.61328125 26.410156L373.703125 29.5"/></g><g class="D B F"><g class="K"><path d="M203.804687 31.74609375h169.285157"/><path d="M370.9375 28.636719c.464844 1.867187 1.503906 2.746093 2.55078125 3.10937475C372.441406 32.109375 371.402344 32.992187 370.9375 34.859375" class="L M"/></g><path d="M288.847656 27.496094V36" class="C"/></g><use xlink:href="#A" x="286.354" y="46.669" class="G"/><path d="M255.40625 31.74609375c0-1.09765675-.894531-1.99218775-1.992188-1.99218775s-1.992187.894531-1.992187 1.99218775.890625 1.99218725 1.992187 1.99218725 1.992188-.890625 1.992188-1.99218725zm0 0" class="B C F J"/><g class="G"><use xlink:href="#B" x="246.982" y="46.06"/><use xlink:href="#E" x="254.731" y="46.06"/></g><path d="M326.273437 31.74609375c0-1.09765675-.894531-1.99218775-1.992187-1.99218775s-1.992188.894531-1.992188 1.99218775.890625 1.99218725 1.992188 1.99218725 1.992187-.890625 1.992187-1.99218725zm0 0" class="B C F J"/><g class="G"><use xlink:href="#E" x="321.723" y="44.538"/><use xlink:href="#C" x="273.906" y="15.774"/></g><use xlink:href="#F" x="276.673" y="15.774" class="J"/><g class="G"><use xlink:href="#C" x="282.623" y="15.774"/><use xlink:href="#D" x="288.160213" y="15.774"/><use xlink:href="#E" x="298.674" y="15.774"/></g></svg>