<svg version="1.1" xmlns="http://www.w3.org/2000/svg" xmlns:xlink="http://www.w3.org/1999/xlink" viewBox="0 0 448 512" xml:space="preserve">
<path d="M448,360V24c0-13.2-10.7-24-23.9-24c0,0-0.1,0-0.1,0H96C43,0,0,43,0,96v320c0,53,43,96,96,96h328
	c13.2,0,24-10.7,24-23.9c0,0,0-0.1,0-0.1v-16c0-7.3-3.3-14.1-8.9-18.7c-4.2-15.4-4.2-59.3,0-74.7C444.7,374.1,448,367.2,448,360z
	 M156.2,271.1c13.9,0,28.4-12.3,34.5-37l13.9-55.8c3.7-14.8,9.3-37.3,9.3-45c0-13-7.1-20.3-22.8-20.3c-16.6,0-45.9,12.3-57.7,49.3
	c-1.9,5.2-4.6,5.2-9.6,5.2c-3.7,0-9.9,0-9.9-5.5c0-13.6,27.8-63.8,79.2-63.8c23.1,0,45.9,8,56.1,25c5.5-7.4,20.3-25,43.8-25
	c24.7,0,46.3,14.5,46.3,36.1c0,20-14.8,31.8-29.3,31.8c-13.3,0-20.4-9.9-20.4-18.8c0-10.2,7.4-24,22.2-28.1
	c-5.7-4.1-12.6-6.3-19.7-6.2c-14.2,0-28.4,12.7-34.5,37c-2.2,6.8-11.4,45-14.5,55.5c-3.4,15.1-9,36.7-9,45.3
	c0,13,7.4,20.3,22.8,20.3c17,0,46.3-12.3,58-49.3c1.5-5.2,4.6-5.2,9.5-5.2c3.4,0,9.6,0,9.6,5.5c0,13.6-27.8,63.8-78.9,63.8
	c-23.4,0-46.3-8-56.4-25c-5.2,7.4-20.4,25-43.5,25c-25,0-46.6-14.5-46.6-36.1c0-20,15.1-31.8,29.3-31.8c13.6,0,20.7,9.9,20.7,18.8
	c0,10.2-7.4,24-22.2,28.1C142.2,269,149.1,271.2,156.2,271.1z M381.4,448H96c-17.7,0-32-14.3-32-32c0-17.7,14.3-32,32-32h285.4
	C379.5,401.1,379.5,430.9,381.4,448z"/>
</svg>
