<svg xmlns="http://www.w3.org/2000/svg" xmlns:xlink="http://www.w3.org/1999/xlink" width="505.684" height="75.065" viewBox="0 0 379.263 56.299"><style><![CDATA[.B{stroke-miterlimit:10}.C{stroke-width:.399}.D{fill:none}.E{stroke:rgb(0%,62.353516%,95.684814%)}.F{fill:rgb(0%,0%,0%)}.G{overflow:visible}.H{stroke:none}.I{stroke:rgb(0%,0%,0%)}.J{fill:rgb(0%,62.353516%,95.684814%)}.K{stroke-linecap:round}.L{stroke-linejoin:round}.M{fill:rgb(100%,100%,100%)}]]></style><defs><symbol id="A" class="G"><path d="M4.578-3.187c0-.797-.047-1.594-.391-2.328-.453-.969-1.281-1.125-1.687-1.125-.609 0-1.328.266-1.75 1.188-.312.688-.359 1.469-.359 2.266 0 .75.031 1.641.453 2.406a1.83 1.83 0 0 0 1.641 1c.531 0 1.297-.203 1.734-1.156.313-.687.359-1.469.359-2.25zM2.484 0C2.094 0 1.5-.25 1.328-1.203c-.109-.594-.109-1.516-.109-2.109l.078-1.828c.188-1.187.938-1.281 1.188-1.281.328 0 .984.188 1.172 1.172.109.563.109 1.313.109 1.938 0 .75 0 1.422-.109 2.063C3.5-.297 2.938 0 2.484 0zm0 0" class="H"/></symbol><symbol id="B" class="G"><path d="M6.563-2.297c.172 0 .359 0 .359-.203 0-.187-.187-.187-.359-.187H1.172c-.172 0-.344 0-.344.188 0 .203.172.203.344.203zm0 0" class="H"/></symbol><symbol id="C" class="G"><path d="M1.578-7.125c0-.172 0-.359-.187-.359-.203 0-.203.188-.203.359v9.266c0 .172 0 .359.203.359.188 0 .188-.187.188-.359zm0 0" class="H"/></symbol><symbol id="D" class="G"><path d="M6.734-5.922c.109-.047.188-.094.188-.219 0-.109-.078-.203-.203-.203-.047 0-.141.047-.172.063L1.031-3.672c-.172.078-.203.141-.203.219 0 .094.063.156.203.219L6.547-.641c.125.078.141.078.172.078.109 0 .203-.094.203-.203 0-.094-.047-.156-.219-.234L1.5-3.453zm-.172 7.281c.172 0 .359 0 .359-.187 0-.203-.219-.203-.359-.203H1.188c-.156 0-.359 0-.359.203 0 .188.172.188.344.188zm0 0" class="H"/></symbol><symbol id="E" class="G"><path d="M4.688-3.766a.56.56 0 0 0 .031-.172c0-.172-.109-.266-.281-.266a.42.42 0 0 0-.406.422c-.187-.359-.531-.625-.937-.625-1.125 0-2.359 1.391-2.359 2.828C.734-.594 1.328 0 2.047 0c.594 0 1.063-.469 1.156-.578l.016.016L2.891.75c-.047.094-.375 1.078-1.437 1.078-.187 0-.516-.016-.797-.109a.54.54 0 0 0 .406-.516c0-.156-.109-.344-.375-.344-.219 0-.531.172-.531.578s.359.609 1.313.609c1.25 0 1.969-.781 2.125-1.375zM3.406-1.281c-.062.266-.297.516-.516.703-.203.172-.516.359-.812.359-.5 0-.641-.516-.641-.922 0-.469.281-1.656.563-2.156.266-.484.688-.891 1.109-.891.656 0 .797.813.797.859s-.016.109-.031.141zm0 0" class="H"/></symbol><symbol id="F" class="G"><path d="M3.656-3.984h.859c.203 0 .297 0 .297-.203 0-.109-.094-.109-.266-.109h-.828l.203-1.141.25-1.031c.078-.187.25-.344.469-.344.031 0 .297 0 .484.188-.437.031-.547.391-.547.531 0 .234.188.359.375.359.266 0 .547-.234.547-.609 0-.453-.453-.687-.859-.687-.344 0-.969.188-1.266 1.172-.062.203-.094.313-.328 1.563h-.687c-.203 0-.312 0-.312.188 0 .125.094.125.281.125h.656L2.25-.047c-.187.969-.359 1.875-.875 1.875-.047 0-.281 0-.484-.187.469-.031.563-.391.563-.531 0-.234-.187-.359-.375-.359-.266 0-.547.234-.547.609 0 .438.438.688.844.688.547 0 .953-.594 1.125-.969.328-.625.547-1.828.563-1.906zm0 0" class="H"/></symbol><symbol id="G" class="G"><path d="M6.734-4.969c.109-.062.188-.109.188-.219s-.094-.203-.203-.203c-.031 0-.047 0-.172.078L1.016-2.719c-.109.063-.187.109-.187.219 0 .125.078.172.188.234L6.547.328c.125.078.141.078.172.078.109 0 .203-.094.203-.203s-.078-.156-.187-.219L1.5-2.5zm0 0" class="H"/></symbol><clipPath id="H"><path d="M33.727 31.391h.148v.355h-.148zm0 0"/></clipPath><clipPath id="I"><path d="M33.727 31.391h3.137v.355h-3.137zm0 0"/></clipPath><clipPath id="J"><path d="M34.871 31.391h4.98v.355h-4.98zm0 0"/></clipPath><clipPath id="K"><path d="M37.859 31.391h4.98v.355h-4.98zm0 0"/></clipPath><clipPath id="L"><path d="M40.848 31.391h4.98v.355h-4.98zm0 0"/></clipPath><clipPath id="M"><path d="M43.836 31.391h4.98v.355h-4.98zm0 0"/></clipPath><clipPath id="N"><path d="M46.824 31.391h4.98v.355h-4.98zm0 0"/></clipPath><clipPath id="O"><path d="M49.813 31.391h4.984v.355h-4.984zm0 0"/></clipPath><clipPath id="P"><path d="M52.801 31.391h4.984v.355h-4.984zm0 0"/></clipPath><clipPath id="Q"><path d="M55.793 31.391h4.98v.355h-4.98zm0 0"/></clipPath><clipPath id="R"><path d="M58.781 31.391h4.98v.355h-4.98zm0 0"/></clipPath><clipPath id="S"><path d="M61.77 31.391h4.98v.355h-4.98zm0 0"/></clipPath><clipPath id="T"><path d="M64.758 31.391h4.98v.355h-4.98zm0 0"/></clipPath><clipPath id="U"><path d="M67.746 31.391h4.98v.355h-4.98zm0 0"/></clipPath><clipPath id="V"><path d="M70.734 31.391h4.984v.355h-4.984zm0 0"/></clipPath><clipPath id="W"><path d="M73.723 31.391h4.984v.355h-4.984zm0 0"/></clipPath><clipPath id="X"><path d="M76.715 31.391h4.98v.355h-4.98zm0 0"/></clipPath><clipPath id="Y"><path d="M79.703 31.391h4.98v.355h-4.98zm0 0"/></clipPath><clipPath id="Z"><path d="M82.691 31.391h4.98v.355h-4.98zm0 0"/></clipPath><clipPath id="a"><path d="M85.68 31.391h4.98v.355h-4.98zm0 0"/></clipPath><clipPath id="b"><path d="M88.668 31.391h4.98v.355h-4.98zm0 0"/></clipPath><clipPath id="c"><path d="M91.656 31.391h4.984v.355h-4.984zm0 0"/></clipPath><clipPath id="d"><path d="M94.645 31.391h4.984v.355h-4.984zm0 0"/></clipPath><clipPath id="e"><path d="M97.637 31.391h4.98v.355h-4.98zm0 0"/></clipPath><clipPath id="f"><path d="M100.625 31.391h4.98v.355h-4.98zm0 0"/></clipPath><clipPath id="g"><path d="M103.613 31.391h4.98v.355h-4.98zm0 0"/></clipPath><clipPath id="h"><path d="M106.602 31.391h4.98v.355h-4.98zm0 0"/></clipPath><clipPath id="i"><path d="M109.59 31.391h4.98v.355h-4.98zm0 0"/></clipPath><clipPath id="j"><path d="M112.578 31.391h4.984v.355h-4.984zm0 0"/></clipPath><clipPath id="k"><path d="M115.566 31.391h4.984v.355h-4.984zm0 0"/></clipPath><clipPath id="l"><path d="M118.559 31.391h4.98v.355h-4.98zm0 0"/></clipPath><clipPath id="m"><path d="M121.547 31.391h4.98v.355h-4.98zm0 0"/></clipPath><clipPath id="n"><path d="M124.535 31.391h4.98v.355h-4.98zm0 0"/></clipPath><clipPath id="o"><path d="M127.523 31.391h4.98v.355h-4.98zm0 0"/></clipPath><clipPath id="p"><path d="M130.512 31.391h4.98v.355h-4.98zm0 0"/></clipPath><clipPath id="q"><path d="M133.5 31.391h4.984v.355H133.5zm0 0"/></clipPath><clipPath id="r"><path d="M136.488 31.391h4.984v.355h-4.984zm0 0"/></clipPath><clipPath id="s"><path d="M139.48 31.391h4.98v.355h-4.98zm0 0"/></clipPath><clipPath id="t"><path d="M142.469 31.391h4.645v.355h-4.645zm0 0"/></clipPath><clipPath id="u"><path d="M145.457 31.391h1.656v.355h-1.656zm0 0"/></clipPath><clipPath id="v"><path d="M33.727 28.402h.148v3.344h-.148zm0 0"/></clipPath><clipPath id="w"><path d="M33.727 28.402h3.137v3.344h-3.137zm0 0"/></clipPath><clipPath id="x"><path d="M34.871 28.402h4.98v3.344h-4.98zm0 0"/></clipPath><clipPath id="y"><path d="M37.859 28.402h4.98v3.344h-4.98zm0 0"/></clipPath><clipPath id="z"><path d="M40.848 28.402h4.98v3.344h-4.98zm0 0"/></clipPath><clipPath id="AA"><path d="M43.836 28.402h4.98v3.344h-4.98zm0 0"/></clipPath><clipPath id="AB"><path d="M46.824 28.402h4.98v3.344h-4.98zm0 0"/></clipPath><clipPath id="AC"><path d="M49.813 28.402h4.984v3.344h-4.984zm0 0"/></clipPath><clipPath id="AD"><path d="M52.801 28.402h4.984v3.344h-4.984zm0 0"/></clipPath><clipPath id="AE"><path d="M55.793 28.402h4.98v3.344h-4.98zm0 0"/></clipPath><clipPath id="AF"><path d="M58.781 28.402h4.98v3.344h-4.98zm0 0"/></clipPath><clipPath id="AG"><path d="M61.77 28.402h4.98v3.344h-4.98zm0 0"/></clipPath><clipPath id="AH"><path d="M64.758 28.402h4.98v3.344h-4.98zm0 0"/></clipPath><clipPath id="AI"><path d="M67.746 28.402h4.98v3.344h-4.98zm0 0"/></clipPath><clipPath id="AJ"><path d="M70.734 28.402h4.984v3.344h-4.984zm0 0"/></clipPath><clipPath id="AK"><path d="M73.723 28.402h4.984v3.344h-4.984zm0 0"/></clipPath><clipPath id="AL"><path d="M76.715 28.402h4.98v3.344h-4.98zm0 0"/></clipPath><clipPath id="AM"><path d="M79.703 28.402h4.98v3.344h-4.98zm0 0"/></clipPath><clipPath id="AN"><path d="M82.691 28.402h4.98v3.344h-4.98zm0 0"/></clipPath><clipPath id="AO"><path d="M85.68 28.402h4.98v3.344h-4.98zm0 0"/></clipPath><clipPath id="AP"><path d="M88.668 28.402h4.98v3.344h-4.98zm0 0"/></clipPath><clipPath id="AQ"><path d="M91.656 28.402h4.984v3.344h-4.984zm0 0"/></clipPath><clipPath id="AR"><path d="M94.645 28.402h4.984v3.344h-4.984zm0 0"/></clipPath><clipPath id="AS"><path d="M97.637 28.402h4.98v3.344h-4.98zm0 0"/></clipPath><clipPath id="AT"><path d="M100.625 28.402h4.98v3.344h-4.98zm0 0"/></clipPath><clipPath id="AU"><path d="M103.613 28.402h4.98v3.344h-4.98zm0 0"/></clipPath><clipPath id="AV"><path d="M106.602 28.402h4.98v3.344h-4.98zm0 0"/></clipPath><clipPath id="AW"><path d="M109.59 28.402h4.98v3.344h-4.98zm0 0"/></clipPath><clipPath id="AX"><path d="M112.578 28.402h4.984v3.344h-4.984zm0 0"/></clipPath><clipPath id="AY"><path d="M115.566 28.402h4.984v3.344h-4.984zm0 0"/></clipPath><clipPath id="AZ"><path d="M118.559 28.402h4.98v3.344h-4.98zm0 0"/></clipPath><clipPath id="Aa"><path d="M121.547 28.402h4.98v3.344h-4.98zm0 0"/></clipPath><clipPath id="Ab"><path d="M124.535 28.402h4.98v3.344h-4.98zm0 0"/></clipPath><clipPath id="Ac"><path d="M127.523 28.402h4.98v3.344h-4.98zm0 0"/></clipPath><clipPath id="Ad"><path d="M130.512 28.402h4.98v3.344h-4.98zm0 0"/></clipPath><clipPath id="Ae"><path d="M133.5 28.402h4.984v3.344H133.5zm0 0"/></clipPath><clipPath id="Af"><path d="M136.488 28.402h4.984v3.344h-4.984zm0 0"/></clipPath><clipPath id="Ag"><path d="M139.48 28.402h4.98v3.344h-4.98zm0 0"/></clipPath><clipPath id="Ah"><path d="M142.469 28.402h4.645v3.344h-4.645zm0 0"/></clipPath><clipPath id="Ai"><path d="M145.457 28.402h1.656v3.344h-1.656zm0 0"/></clipPath><clipPath id="Aj"><path d="M33.727 27.496h.148v2.898h-.148zm0 0"/></clipPath><clipPath id="Ak"><path d="M33.727 27.496h3.137v2.898h-3.137zm0 0"/></clipPath><clipPath id="Al"><path d="M34.871 27.496h4.98v2.898h-4.98zm0 0"/></clipPath><clipPath id="Am"><path d="M37.859 27.496h4.98v2.898h-4.98zm0 0"/></clipPath><clipPath id="An"><path d="M40.848 27.496h4.98v2.898h-4.98zm0 0"/></clipPath><clipPath id="Ao"><path d="M43.836 27.496h4.98v2.898h-4.98zm0 0"/></clipPath><clipPath id="Ap"><path d="M46.824 27.496h4.98v2.898h-4.98zm0 0"/></clipPath><clipPath id="Aq"><path d="M49.813 27.496h4.984v2.898h-4.984zm0 0"/></clipPath><clipPath id="Ar"><path d="M52.801 27.496h4.984v2.898h-4.984zm0 0"/></clipPath><clipPath id="As"><path d="M55.793 27.496h4.98v2.898h-4.98zm0 0"/></clipPath><clipPath id="At"><path d="M58.781 27.496h4.98v2.898h-4.98zm0 0"/></clipPath><clipPath id="Au"><path d="M61.77 27.496h4.98v2.898h-4.98zm0 0"/></clipPath><clipPath id="Av"><path d="M64.758 27.496h4.98v2.898h-4.98zm0 0"/></clipPath><clipPath id="Aw"><path d="M67.746 27.496h4.98v2.898h-4.98zm0 0"/></clipPath><clipPath id="Ax"><path d="M70.734 27.496h4.984v2.898h-4.984zm0 0"/></clipPath><clipPath id="Ay"><path d="M73.723 27.496h4.984v2.898h-4.984zm0 0"/></clipPath><clipPath id="Az"><path d="M76.715 27.496h4.98v2.898h-4.98zm0 0"/></clipPath><clipPath id="BA"><path d="M79.703 27.496h4.98v2.898h-4.98zm0 0"/></clipPath><clipPath id="BB"><path d="M82.691 27.496h4.98v2.898h-4.98zm0 0"/></clipPath><clipPath id="BC"><path d="M85.68 27.496h4.98v2.898h-4.98zm0 0"/></clipPath><clipPath id="BD"><path d="M88.668 27.496h4.98v2.898h-4.98zm0 0"/></clipPath><clipPath id="BE"><path d="M91.656 27.496h4.984v2.898h-4.984zm0 0"/></clipPath><clipPath id="BF"><path d="M94.645 27.496h4.984v2.898h-4.984zm0 0"/></clipPath><clipPath id="BG"><path d="M97.637 27.496h4.98v2.898h-4.98zm0 0"/></clipPath><clipPath id="BH"><path d="M100.625 27.496h4.98v2.898h-4.98zm0 0"/></clipPath><clipPath id="BI"><path d="M103.613 27.496h4.98v2.898h-4.98zm0 0"/></clipPath><clipPath id="BJ"><path d="M106.602 27.496h4.98v2.898h-4.98zm0 0"/></clipPath><clipPath id="BK"><path d="M109.59 27.496h4.98v2.898h-4.98zm0 0"/></clipPath><clipPath id="BL"><path d="M112.578 27.496h4.984v2.898h-4.984zm0 0"/></clipPath><clipPath id="BM"><path d="M115.566 27.496h4.984v2.898h-4.984zm0 0"/></clipPath><clipPath id="BN"><path d="M118.559 27.496h4.98v2.898h-4.98zm0 0"/></clipPath><clipPath id="BO"><path d="M121.547 27.496h4.98v2.898h-4.98zm0 0"/></clipPath><clipPath id="BP"><path d="M124.535 27.496h4.98v2.898h-4.98zm0 0"/></clipPath><clipPath id="BQ"><path d="M127.523 27.496h4.98v2.898h-4.98zm0 0"/></clipPath><clipPath id="BR"><path d="M130.512 27.496h4.98v2.898h-4.98zm0 0"/></clipPath><clipPath id="BS"><path d="M133.5 27.496h4.984v2.898H133.5zm0 0"/></clipPath><clipPath id="BT"><path d="M136.488 27.496h4.984v2.898h-4.984zm0 0"/></clipPath><clipPath id="BU"><path d="M139.48 27.496h4.98v2.898h-4.98zm0 0"/></clipPath><clipPath id="BV"><path d="M142.469 27.496h4.645v2.898h-4.645zm0 0"/></clipPath><clipPath id="BW"><path d="M145.457 27.496h1.656v2.898h-1.656zm0 0"/></clipPath><clipPath id="BX"><path d="M232.152 31.391h1.973v.355h-1.973zm0 0"/></clipPath><clipPath id="BY"><path d="M232.152 31.391h4.961v.355h-4.961zm0 0"/></clipPath><clipPath id="BZ"><path d="M235.121 31.391h4.98v.355h-4.98zm0 0"/></clipPath><clipPath id="Ba"><path d="M238.109 31.391h4.98v.355h-4.98zm0 0"/></clipPath><clipPath id="Bb"><path d="M241.098 31.391h4.984v.355h-4.984zm0 0"/></clipPath><clipPath id="Bc"><path d="M244.086 31.391h4.984v.355h-4.984zm0 0"/></clipPath><clipPath id="Bd"><path d="M247.078 31.391h4.98v.355h-4.98zm0 0"/></clipPath><clipPath id="Be"><path d="M250.066 31.391h4.98v.355h-4.98zm0 0"/></clipPath><clipPath id="Bf"><path d="M253.055 31.391h4.98v.355h-4.98zm0 0"/></clipPath><clipPath id="Bg"><path d="M256.043 31.391h4.98v.355h-4.98zm0 0"/></clipPath><clipPath id="Bh"><path d="M259.031 31.391h4.98v.355h-4.98zm0 0"/></clipPath><clipPath id="Bi"><path d="M262.02 31.391h4.984v.355h-4.984zm0 0"/></clipPath><clipPath id="Bj"><path d="M265.008 31.391h4.984v.355h-4.984zm0 0"/></clipPath><clipPath id="Bk"><path d="M268 31.391h4.98v.355H268zm0 0"/></clipPath><clipPath id="Bl"><path d="M270.988 31.391h4.98v.355h-4.98zm0 0"/></clipPath><clipPath id="Bm"><path d="M273.977 31.391h4.98v.355h-4.98zm0 0"/></clipPath><clipPath id="Bn"><path d="M276.965 31.391h4.98v.355h-4.98zm0 0"/></clipPath><clipPath id="Bo"><path d="M279.953 31.391h4.98v.355h-4.98zm0 0"/></clipPath><clipPath id="Bp"><path d="M282.941 31.391h4.984v.355h-4.984zm0 0"/></clipPath><clipPath id="Bq"><path d="M285.93 31.391h4.984v.355h-4.984zm0 0"/></clipPath><clipPath id="Br"><path d="M288.922 31.391h4.98v.355h-4.98zm0 0"/></clipPath><clipPath id="Bs"><path d="M291.91 31.391h4.98v.355h-4.98zm0 0"/></clipPath><clipPath id="Bt"><path d="M294.898 31.391h4.98v.355h-4.98zm0 0"/></clipPath><clipPath id="Bu"><path d="M297.887 31.391h4.98v.355h-4.98zm0 0"/></clipPath><clipPath id="Bv"><path d="M300.875 31.391h4.98v.355h-4.98zm0 0"/></clipPath><clipPath id="Bw"><path d="M303.863 31.391h4.984v.355h-4.984zm0 0"/></clipPath><clipPath id="Bx"><path d="M306.852 31.391h4.984v.355h-4.984zm0 0"/></clipPath><clipPath id="By"><path d="M309.844 31.391h4.98v.355h-4.98zm0 0"/></clipPath><clipPath id="Bz"><path d="M312.832 31.391h4.98v.355h-4.98zm0 0"/></clipPath><clipPath id="CA"><path d="M315.82 31.391h4.98v.355h-4.98zm0 0"/></clipPath><clipPath id="CB"><path d="M318.809 31.391h4.98v.355h-4.98zm0 0"/></clipPath><clipPath id="CC"><path d="M321.797 31.391h4.98v.355h-4.98zm0 0"/></clipPath><clipPath id="CD"><path d="M324.785 31.391h4.98v.355h-4.98zm0 0"/></clipPath><clipPath id="CE"><path d="M327.773 31.391h4.984v.355h-4.984zm0 0"/></clipPath><clipPath id="CF"><path d="M330.766 31.391h4.98v.355h-4.98zm0 0"/></clipPath><clipPath id="CG"><path d="M333.754 31.391h4.98v.355h-4.98zm0 0"/></clipPath><clipPath id="CH"><path d="M336.742 31.391h4.98v.355h-4.98zm0 0"/></clipPath><clipPath id="CI"><path d="M339.73 31.391h4.98v.355h-4.98zm0 0"/></clipPath><clipPath id="CJ"><path d="M342.719 31.391h2.82v.355h-2.82zm0 0"/></clipPath><clipPath id="CK"><path d="M232.152 28.402h1.973v3.344h-1.973zm0 0"/></clipPath><clipPath id="CL"><path d="M232.152 28.402h4.961v3.344h-4.961zm0 0"/></clipPath><clipPath id="CM"><path d="M235.121 28.402h4.98v3.344h-4.98zm0 0"/></clipPath><clipPath id="CN"><path d="M238.109 28.402h4.98v3.344h-4.98zm0 0"/></clipPath><clipPath id="CO"><path d="M241.098 28.402h4.984v3.344h-4.984zm0 0"/></clipPath><clipPath id="CP"><path d="M244.086 28.402h4.984v3.344h-4.984zm0 0"/></clipPath><clipPath id="CQ"><path d="M247.078 28.402h4.98v3.344h-4.98zm0 0"/></clipPath><clipPath id="CR"><path d="M250.066 28.402h4.98v3.344h-4.98zm0 0"/></clipPath><clipPath id="CS"><path d="M253.055 28.402h4.98v3.344h-4.98zm0 0"/></clipPath><clipPath id="CT"><path d="M256.043 28.402h4.98v3.344h-4.98zm0 0"/></clipPath><clipPath id="CU"><path d="M259.031 28.402h4.98v3.344h-4.98zm0 0"/></clipPath><clipPath id="CV"><path d="M262.02 28.402h4.984v3.344h-4.984zm0 0"/></clipPath><clipPath id="CW"><path d="M265.008 28.402h4.984v3.344h-4.984zm0 0"/></clipPath><clipPath id="CX"><path d="M268 28.402h4.98v3.344H268zm0 0"/></clipPath><clipPath id="CY"><path d="M270.988 28.402h4.98v3.344h-4.98zm0 0"/></clipPath><clipPath id="CZ"><path d="M273.977 28.402h4.98v3.344h-4.98zm0 0"/></clipPath><clipPath id="Ca"><path d="M276.965 28.402h4.98v3.344h-4.98zm0 0"/></clipPath><clipPath id="Cb"><path d="M279.953 28.402h4.98v3.344h-4.98zm0 0"/></clipPath><clipPath id="Cc"><path d="M282.941 28.402h4.984v3.344h-4.984zm0 0"/></clipPath><clipPath id="Cd"><path d="M285.93 28.402h4.984v3.344h-4.984zm0 0"/></clipPath><clipPath id="Ce"><path d="M288.922 28.402h4.98v3.344h-4.98zm0 0"/></clipPath><clipPath id="Cf"><path d="M291.91 28.402h4.98v3.344h-4.98zm0 0"/></clipPath><clipPath id="Cg"><path d="M294.898 28.402h4.98v3.344h-4.98zm0 0"/></clipPath><clipPath id="Ch"><path d="M297.887 28.402h4.98v3.344h-4.98zm0 0"/></clipPath><clipPath id="Ci"><path d="M300.875 28.402h4.98v3.344h-4.98zm0 0"/></clipPath><clipPath id="Cj"><path d="M303.863 28.402h4.984v3.344h-4.984zm0 0"/></clipPath><clipPath id="Ck"><path d="M306.852 28.402h4.984v3.344h-4.984zm0 0"/></clipPath><clipPath id="Cl"><path d="M309.844 28.402h4.98v3.344h-4.98zm0 0"/></clipPath><clipPath id="Cm"><path d="M312.832 28.402h4.98v3.344h-4.98zm0 0"/></clipPath><clipPath id="Cn"><path d="M315.82 28.402h4.98v3.344h-4.98zm0 0"/></clipPath><clipPath id="Co"><path d="M318.809 28.402h4.98v3.344h-4.98zm0 0"/></clipPath><clipPath id="Cp"><path d="M321.797 28.402h4.98v3.344h-4.98zm0 0"/></clipPath><clipPath id="Cq"><path d="M324.785 28.402h4.98v3.344h-4.98zm0 0"/></clipPath><clipPath id="Cr"><path d="M327.773 28.402h4.984v3.344h-4.984zm0 0"/></clipPath><clipPath id="Cs"><path d="M330.766 28.402h4.98v3.344h-4.98zm0 0"/></clipPath><clipPath id="Ct"><path d="M333.754 28.402h4.98v3.344h-4.98zm0 0"/></clipPath><clipPath id="Cu"><path d="M336.742 28.402h4.98v3.344h-4.98zm0 0"/></clipPath><clipPath id="Cv"><path d="M339.73 28.402h4.98v3.344h-4.98zm0 0"/></clipPath><clipPath id="Cw"><path d="M342.719 28.402h2.82v3.344h-2.82zm0 0"/></clipPath><clipPath id="Cx"><path d="M232.152 27.496h1.973v2.898h-1.973zm0 0"/></clipPath><clipPath id="Cy"><path d="M232.152 27.496h4.961v2.898h-4.961zm0 0"/></clipPath><clipPath id="Cz"><path d="M235.121 27.496h4.98v2.898h-4.98zm0 0"/></clipPath><clipPath id="DA"><path d="M238.109 27.496h4.98v2.898h-4.98zm0 0"/></clipPath><clipPath id="DB"><path d="M241.098 27.496h4.984v2.898h-4.984zm0 0"/></clipPath><clipPath id="DC"><path d="M244.086 27.496h4.984v2.898h-4.984zm0 0"/></clipPath><clipPath id="DD"><path d="M247.078 27.496h4.98v2.898h-4.98zm0 0"/></clipPath><clipPath id="DE"><path d="M250.066 27.496h4.98v2.898h-4.98zm0 0"/></clipPath><clipPath id="DF"><path d="M253.055 27.496h4.98v2.898h-4.98zm0 0"/></clipPath><clipPath id="DG"><path d="M256.043 27.496h4.98v2.898h-4.98zm0 0"/></clipPath><clipPath id="DH"><path d="M259.031 27.496h4.98v2.898h-4.98zm0 0"/></clipPath><clipPath id="DI"><path d="M262.02 27.496h4.984v2.898h-4.984zm0 0"/></clipPath><clipPath id="DJ"><path d="M265.008 27.496h4.984v2.898h-4.984zm0 0"/></clipPath><clipPath id="DK"><path d="M268 27.496h4.98v2.898H268zm0 0"/></clipPath><clipPath id="DL"><path d="M270.988 27.496h4.98v2.898h-4.98zm0 0"/></clipPath><clipPath id="DM"><path d="M273.977 27.496h4.98v2.898h-4.98zm0 0"/></clipPath><clipPath id="DN"><path d="M276.965 27.496h4.98v2.898h-4.98zm0 0"/></clipPath><clipPath id="DO"><path d="M279.953 27.496h4.98v2.898h-4.98zm0 0"/></clipPath><clipPath id="DP"><path d="M282.941 27.496h4.984v2.898h-4.984zm0 0"/></clipPath><clipPath id="DQ"><path d="M285.93 27.496h4.984v2.898h-4.984zm0 0"/></clipPath><clipPath id="DR"><path d="M288.922 27.496h4.98v2.898h-4.98zm0 0"/></clipPath><clipPath id="DS"><path d="M291.91 27.496h4.98v2.898h-4.98zm0 0"/></clipPath><clipPath id="DT"><path d="M294.898 27.496h4.98v2.898h-4.98zm0 0"/></clipPath><clipPath id="DU"><path d="M297.887 27.496h4.98v2.898h-4.98zm0 0"/></clipPath><clipPath id="DV"><path d="M300.875 27.496h4.98v2.898h-4.98zm0 0"/></clipPath><clipPath id="DW"><path d="M303.863 27.496h4.984v2.898h-4.984zm0 0"/></clipPath><clipPath id="DX"><path d="M306.852 27.496h4.984v2.898h-4.984zm0 0"/></clipPath><clipPath id="DY"><path d="M309.844 27.496h4.98v2.898h-4.98zm0 0"/></clipPath><clipPath id="DZ"><path d="M312.832 27.496h4.98v2.898h-4.98zm0 0"/></clipPath><clipPath id="Da"><path d="M315.82 27.496h4.98v2.898h-4.98zm0 0"/></clipPath><clipPath id="Db"><path d="M318.809 27.496h4.98v2.898h-4.98zm0 0"/></clipPath><clipPath id="Dc"><path d="M321.797 27.496h4.98v2.898h-4.98zm0 0"/></clipPath><clipPath id="Dd"><path d="M324.785 27.496h4.98v2.898h-4.98zm0 0"/></clipPath><clipPath id="De"><path d="M327.773 27.496h4.984v2.898h-4.984zm0 0"/></clipPath><clipPath id="Df"><path d="M330.766 27.496h4.98v2.898h-4.98zm0 0"/></clipPath><clipPath id="Dg"><path d="M333.754 27.496h4.98v2.898h-4.98zm0 0"/></clipPath><clipPath id="Dh"><path d="M336.742 27.496h4.98v2.898h-4.98zm0 0"/></clipPath><clipPath id="Di"><path d="M339.73 27.496h4.98v2.898h-4.98zm0 0"/></clipPath><clipPath id="Dj"><path d="M342.719 27.496h2.82v2.898h-2.82zm0 0"/></clipPath><path id="Dk" d="M172.512 28.637c.465 1.867 1.504 2.746 2.551 3.109-1.047.363-2.086 1.246-2.551 3.113"/><path id="Dl" d="M149.105 31.746c0-1.098-.891-1.992-1.992-1.992s-1.992.895-1.992 1.992a1.99 1.99 0 1 0 3.984 0zm0 0"/></defs><g clip-path="url(#H)" class="B C D E"><path d="M29.887 32.387l3.09 3.09"/></g><g clip-path="url(#I)" class="B C D E"><path d="M32.879 32.387l3.086 3.09"/></g><g clip-path="url(#J)" class="B C D E"><path d="M35.867 32.387l3.086 3.09"/></g><g clip-path="url(#K)" class="B C D E"><path d="M38.855 32.387l3.086 3.09"/></g><g clip-path="url(#L)" class="B C D E"><path d="M41.844 32.387l3.09 3.09"/></g><g clip-path="url(#M)" class="B C D E"><path d="M44.832 32.387l3.09 3.09"/></g><g clip-path="url(#N)" class="B C D E"><path d="M47.82 32.387l3.09 3.09"/></g><g clip-path="url(#O)" class="B C D E"><path d="M50.809 32.387l3.09 3.09"/></g><g clip-path="url(#P)" class="B C D E"><path d="M53.801 32.387l3.086 3.09"/></g><g clip-path="url(#Q)" class="B C D E"><path d="M56.789 32.387l3.086 3.09"/></g><g clip-path="url(#R)" class="B C D E"><path d="M59.777 32.387l3.086 3.09"/></g><g clip-path="url(#S)" class="B C D E"><path d="M62.766 32.387l3.09 3.09"/></g><g clip-path="url(#T)" class="B C D E"><path d="M65.754 32.387l3.09 3.09"/></g><g clip-path="url(#U)" class="B C D E"><path d="M68.742 32.387l3.09 3.09"/></g><g clip-path="url(#V)" class="B C D E"><path d="M71.73 32.387l3.09 3.09"/></g><g clip-path="url(#W)" class="B C D E"><path d="M74.723 32.387l3.086 3.09"/></g><g clip-path="url(#X)" class="B C D E"><path d="M77.711 32.387l3.086 3.09"/></g><g clip-path="url(#Y)" class="B C D E"><path d="M80.699 32.387l3.086 3.09"/></g><g clip-path="url(#Z)" class="B C D E"><path d="M83.688 32.387l3.09 3.09"/></g><g clip-path="url(#a)" class="B C D E"><path d="M86.676 32.387l3.09 3.09"/></g><g clip-path="url(#b)" class="B C D E"><path d="M89.664 32.387l3.09 3.09"/></g><g clip-path="url(#c)" class="B C D E"><path d="M92.652 32.387l3.09 3.09"/></g><g clip-path="url(#d)" class="B C D E"><path d="M95.641 32.387l3.09 3.09"/></g><g clip-path="url(#e)" class="B C D E"><path d="M98.633 32.387l3.086 3.09"/></g><g clip-path="url(#f)" class="B C D E"><path d="M101.621 32.387l3.086 3.09"/></g><g clip-path="url(#g)" class="B C D E"><path d="M104.609 32.387l3.09 3.09"/></g><g clip-path="url(#h)" class="B C D E"><path d="M107.598 32.387l3.09 3.09"/></g><g clip-path="url(#i)" class="B C D E"><path d="M110.586 32.387l3.09 3.09"/></g><g clip-path="url(#j)" class="B C D E"><path d="M113.574 32.387l3.09 3.09"/></g><g clip-path="url(#k)" class="B C D E"><path d="M116.563 32.387l3.09 3.09"/></g><g clip-path="url(#l)" class="B C D E"><path d="M119.555 32.387l3.086 3.09"/></g><g clip-path="url(#m)" class="B C D E"><path d="M122.543 32.387l3.086 3.09"/></g><g clip-path="url(#n)" class="B C D E"><path d="M125.531 32.387l3.09 3.09"/></g><g clip-path="url(#o)" class="B C D E"><path d="M128.52 32.387l3.09 3.09"/></g><g clip-path="url(#p)" class="B C D E"><path d="M131.508 32.387l3.09 3.09"/></g><g clip-path="url(#q)" class="B C D E"><path d="M134.496 32.387l3.09 3.09"/></g><g clip-path="url(#r)" class="B C D E"><path d="M137.484 32.387l3.09 3.09"/></g><g clip-path="url(#s)" class="B C D E"><path d="M140.477 32.387l3.086 3.09"/></g><g clip-path="url(#t)" class="B C D E"><path d="M143.465 32.387l3.086 3.09"/></g><g clip-path="url(#u)" class="B C D E"><path d="M146.453 32.387l3.09 3.09"/></g><g clip-path="url(#v)" class="B C D E"><path d="M29.887 29.398l3.09 3.09"/></g><g clip-path="url(#w)" class="B C D E"><path d="M32.879 29.398l3.086 3.09"/></g><g clip-path="url(#x)" class="B C D E"><path d="M35.867 29.398l3.086 3.09"/></g><g clip-path="url(#y)" class="B C D E"><path d="M38.855 29.398l3.086 3.09"/></g><g clip-path="url(#z)" class="B C D E"><path d="M41.844 29.398l3.09 3.09"/></g><g clip-path="url(#AA)" class="B C D E"><path d="M44.832 29.398l3.09 3.09"/></g><g clip-path="url(#AB)" class="B C D E"><path d="M47.82 29.398l3.09 3.09"/></g><g clip-path="url(#AC)" class="B C D E"><path d="M50.809 29.398l3.09 3.09"/></g><g clip-path="url(#AD)" class="B C D E"><path d="M53.801 29.398l3.086 3.09"/></g><g clip-path="url(#AE)" class="B C D E"><path d="M56.789 29.398l3.086 3.09"/></g><g clip-path="url(#AF)" class="B C D E"><path d="M59.777 29.398l3.086 3.09"/></g><g clip-path="url(#AG)" class="B C D E"><path d="M62.766 29.398l3.09 3.09"/></g><g clip-path="url(#AH)" class="B C D E"><path d="M65.754 29.398l3.09 3.09"/></g><g clip-path="url(#AI)" class="B C D E"><path d="M68.742 29.398l3.09 3.09"/></g><g clip-path="url(#AJ)" class="B C D E"><path d="M71.73 29.398l3.09 3.09"/></g><g clip-path="url(#AK)" class="B C D E"><path d="M74.723 29.398l3.086 3.09"/></g><g clip-path="url(#AL)" class="B C D E"><path d="M77.711 29.398l3.086 3.09"/></g><g clip-path="url(#AM)" class="B C D E"><path d="M80.699 29.398l3.086 3.09"/></g><g clip-path="url(#AN)" class="B C D E"><path d="M83.688 29.398l3.09 3.09"/></g><g clip-path="url(#AO)" class="B C D E"><path d="M86.676 29.398l3.09 3.09"/></g><g clip-path="url(#AP)" class="B C D E"><path d="M89.664 29.398l3.09 3.09"/></g><g clip-path="url(#AQ)" class="B C D E"><path d="M92.652 29.398l3.09 3.09"/></g><g clip-path="url(#AR)" class="B C D E"><path d="M95.641 29.398l3.09 3.09"/></g><g clip-path="url(#AS)" class="B C D E"><path d="M98.633 29.398l3.086 3.09"/></g><g clip-path="url(#AT)" class="B C D E"><path d="M101.621 29.398l3.086 3.09"/></g><g clip-path="url(#AU)" class="B C D E"><path d="M104.609 29.398l3.09 3.09"/></g><g clip-path="url(#AV)" class="B C D E"><path d="M107.598 29.398l3.09 3.09"/></g><g clip-path="url(#AW)" class="B C D E"><path d="M110.586 29.398l3.09 3.09"/></g><g clip-path="url(#AX)" class="B C D E"><path d="M113.574 29.398l3.09 3.09"/></g><g clip-path="url(#AY)" class="B C D E"><path d="M116.563 29.398l3.09 3.09"/></g><g clip-path="url(#AZ)" class="B C D E"><path d="M119.555 29.398l3.086 3.09"/></g><g clip-path="url(#Aa)" class="B C D E"><path d="M122.543 29.398l3.086 3.09"/></g><g clip-path="url(#Ab)" class="B C D E"><path d="M125.531 29.398l3.09 3.09"/></g><g clip-path="url(#Ac)" class="B C D E"><path d="M128.52 29.398l3.09 3.09"/></g><g clip-path="url(#Ad)" class="B C D E"><path d="M131.508 29.398l3.09 3.09"/></g><g clip-path="url(#Ae)" class="B C D E"><path d="M134.496 29.398l3.09 3.09"/></g><g clip-path="url(#Af)" class="B C D E"><path d="M137.484 29.398l3.09 3.09"/></g><g clip-path="url(#Ag)" class="B C D E"><path d="M140.477 29.398l3.086 3.09"/></g><g clip-path="url(#Ah)" class="B C D E"><path d="M143.465 29.398l3.086 3.09"/></g><g clip-path="url(#Ai)" class="B C D E"><path d="M146.453 29.398l3.09 3.09"/></g><g clip-path="url(#Aj)" class="B C D E"><path d="M29.887 26.41l3.09 3.09"/></g><g clip-path="url(#Ak)" class="B C D E"><path d="M32.879 26.41l3.086 3.09"/></g><g clip-path="url(#Al)" class="B C D E"><path d="M35.867 26.41l3.086 3.09"/></g><g clip-path="url(#Am)" class="B C D E"><path d="M38.855 26.41l3.086 3.09"/></g><g clip-path="url(#An)" class="B C D E"><path d="M41.844 26.41l3.09 3.09"/></g><g clip-path="url(#Ao)" class="B C D E"><path d="M44.832 26.41l3.09 3.09"/></g><g clip-path="url(#Ap)" class="B C D E"><path d="M47.82 26.41l3.09 3.09"/></g><g clip-path="url(#Aq)" class="B C D E"><path d="M50.809 26.41l3.09 3.09"/></g><g clip-path="url(#Ar)" class="B C D E"><path d="M53.801 26.41l3.086 3.09"/></g><g clip-path="url(#As)" class="B C D E"><path d="M56.789 26.41l3.086 3.09"/></g><g clip-path="url(#At)" class="B C D E"><path d="M59.777 26.41l3.086 3.09"/></g><g clip-path="url(#Au)" class="B C D E"><path d="M62.766 26.41l3.09 3.09"/></g><g clip-path="url(#Av)" class="B C D E"><path d="M65.754 26.41l3.09 3.09"/></g><g clip-path="url(#Aw)" class="B C D E"><path d="M68.742 26.41l3.09 3.09"/></g><g clip-path="url(#Ax)" class="B C D E"><path d="M71.73 26.41l3.09 3.09"/></g><g clip-path="url(#Ay)" class="B C D E"><path d="M74.723 26.41l3.086 3.09"/></g><g clip-path="url(#Az)" class="B C D E"><path d="M77.711 26.41l3.086 3.09"/></g><g clip-path="url(#BA)" class="B C D E"><path d="M80.699 26.41l3.086 3.09"/></g><g clip-path="url(#BB)" class="B C D E"><path d="M83.688 26.41l3.09 3.09"/></g><g clip-path="url(#BC)" class="B C D E"><path d="M86.676 26.41l3.09 3.09"/></g><g clip-path="url(#BD)" class="B C D E"><path d="M89.664 26.41l3.09 3.09"/></g><g clip-path="url(#BE)" class="B C D E"><path d="M92.652 26.41l3.09 3.09"/></g><g clip-path="url(#BF)" class="B C D E"><path d="M95.641 26.41l3.09 3.09"/></g><g clip-path="url(#BG)" class="B C D E"><path d="M98.633 26.41l3.086 3.09"/></g><g clip-path="url(#BH)" class="B C D E"><path d="M101.621 26.41l3.086 3.09"/></g><g clip-path="url(#BI)" class="B C D E"><path d="M104.609 26.41l3.09 3.09"/></g><g clip-path="url(#BJ)" class="B C D E"><path d="M107.598 26.41l3.09 3.09"/></g><g clip-path="url(#BK)" class="B C D E"><path d="M110.586 26.41l3.09 3.09"/></g><g clip-path="url(#BL)" class="B C D E"><path d="M113.574 26.41l3.09 3.09"/></g><g clip-path="url(#BM)" class="B C D E"><path d="M116.563 26.41l3.09 3.09"/></g><g clip-path="url(#BN)" class="B C D E"><path d="M119.555 26.41l3.086 3.09"/></g><g clip-path="url(#BO)" class="B C D E"><path d="M122.543 26.41l3.086 3.09"/></g><g clip-path="url(#BP)" class="B C D E"><path d="M125.531 26.41l3.09 3.09"/></g><g clip-path="url(#BQ)" class="B C D E"><path d="M128.52 26.41l3.09 3.09"/></g><g clip-path="url(#BR)" class="B C D E"><path d="M131.508 26.41l3.09 3.09"/></g><g clip-path="url(#BS)" class="B C D E"><path d="M134.496 26.41l3.09 3.09"/></g><g clip-path="url(#BT)" class="B C D E"><path d="M137.484 26.41l3.09 3.09"/></g><g clip-path="url(#BU)" class="B C D E"><path d="M140.477 26.41l3.086 3.09"/></g><g clip-path="url(#BV)" class="B C D E"><path d="M143.465 26.41l3.086 3.09"/></g><g clip-path="url(#BW)" class="B C D E"><path d="M146.453 26.41l3.09 3.09"/></g><g clip-path="url(#BX)" class="B C D E"><path d="M230.141 32.387l3.086 3.09"/></g><g clip-path="url(#BY)" class="B C D E"><path d="M233.129 32.387l3.09 3.09"/></g><g clip-path="url(#BZ)" class="B C D E"><path d="M236.117 32.387l3.09 3.09"/></g><g clip-path="url(#Ba)" class="B C D E"><path d="M239.105 32.387l3.09 3.09"/></g><g clip-path="url(#Bb)" class="B C D E"><path d="M242.094 32.387l3.09 3.09"/></g><g clip-path="url(#Bc)" class="B C D E"><path d="M245.086 32.387l3.086 3.09"/></g><g clip-path="url(#Bd)" class="B C D E"><path d="M248.074 32.387l3.086 3.09"/></g><g clip-path="url(#Be)" class="B C D E"><path d="M251.063 32.387l3.086 3.09"/></g><g clip-path="url(#Bf)" class="B C D E"><path d="M254.051 32.387l3.09 3.09"/></g><g clip-path="url(#Bg)" class="B C D E"><path d="M257.039 32.387l3.09 3.09"/></g><g clip-path="url(#Bh)" class="B C D E"><path d="M260.027 32.387l3.09 3.09"/></g><g clip-path="url(#Bi)" class="B C D E"><path d="M263.016 32.387l3.09 3.09"/></g><g clip-path="url(#Bj)" class="B C D E"><path d="M266.008 32.387l3.086 3.09"/></g><g clip-path="url(#Bk)" class="B C D E"><path d="M268.996 32.387l3.086 3.09"/></g><g clip-path="url(#Bl)" class="B C D E"><path d="M271.984 32.387l3.086 3.09"/></g><g clip-path="url(#Bm)" class="B C D E"><path d="M274.973 32.387l3.09 3.09"/></g><g clip-path="url(#Bn)" class="B C D E"><path d="M277.961 32.387l3.09 3.09"/></g><g clip-path="url(#Bo)" class="B C D E"><path d="M280.949 32.387l3.09 3.09"/></g><g clip-path="url(#Bp)" class="B C D E"><path d="M283.938 32.387l3.09 3.09"/></g><g clip-path="url(#Bq)" class="B C D E"><path d="M286.926 32.387l3.09 3.09"/></g><g clip-path="url(#Br)" class="B C D E"><path d="M289.918 32.387l3.086 3.09"/></g><g clip-path="url(#Bs)" class="B C D E"><path d="M292.906 32.387l3.086 3.09"/></g><g clip-path="url(#Bt)" class="B C D E"><path d="M295.895 32.387l3.09 3.09"/></g><g clip-path="url(#Bu)" class="B C D E"><path d="M298.883 32.387l3.09 3.09"/></g><g clip-path="url(#Bv)" class="B C D E"><path d="M301.871 32.387l3.09 3.09"/></g><g clip-path="url(#Bw)" class="B C D E"><path d="M304.859 32.387l3.09 3.09"/></g><g clip-path="url(#Bx)" class="B C D E"><path d="M307.848 32.387l3.09 3.09"/></g><g clip-path="url(#By)" class="B C D E"><path d="M310.84 32.387l3.086 3.09"/></g><g clip-path="url(#Bz)" class="B C D E"><path d="M313.828 32.387l3.086 3.09"/></g><g clip-path="url(#CA)" class="B C D E"><path d="M316.816 32.387l3.09 3.09"/></g><g clip-path="url(#CB)" class="B C D E"><path d="M319.805 32.387l3.09 3.09"/></g><g clip-path="url(#CC)" class="B C D E"><path d="M322.793 32.387l3.09 3.09"/></g><g clip-path="url(#CD)" class="B C D E"><path d="M325.781 32.387l3.09 3.09"/></g><g clip-path="url(#CE)" class="B C D E"><path d="M328.77 32.387l3.09 3.09"/></g><g clip-path="url(#CF)" class="B C D E"><path d="M331.762 32.387l3.086 3.09"/></g><g clip-path="url(#CG)" class="B C D E"><path d="M334.75 32.387l3.086 3.09"/></g><g clip-path="url(#CH)" class="B C D E"><path d="M337.738 32.387l3.09 3.09"/></g><g clip-path="url(#CI)" class="B C D E"><path d="M340.727 32.387l3.09 3.09"/></g><g clip-path="url(#CJ)" class="B C D E"><path d="M343.715 32.387l3.09 3.09"/></g><g clip-path="url(#CK)" class="B C D E"><path d="M230.141 29.398l3.086 3.09"/></g><g clip-path="url(#CL)" class="B C D E"><path d="M233.129 29.398l3.09 3.09"/></g><g clip-path="url(#CM)" class="B C D E"><path d="M236.117 29.398l3.09 3.09"/></g><g clip-path="url(#CN)" class="B C D E"><path d="M239.105 29.398l3.09 3.09"/></g><g clip-path="url(#CO)" class="B C D E"><path d="M242.094 29.398l3.09 3.09"/></g><g clip-path="url(#CP)" class="B C D E"><path d="M245.086 29.398l3.086 3.09"/></g><g clip-path="url(#CQ)" class="B C D E"><path d="M248.074 29.398l3.086 3.09"/></g><g clip-path="url(#CR)" class="B C D E"><path d="M251.063 29.398l3.086 3.09"/></g><g clip-path="url(#CS)" class="B C D E"><path d="M254.051 29.398l3.09 3.09"/></g><g clip-path="url(#CT)" class="B C D E"><path d="M257.039 29.398l3.09 3.09"/></g><g clip-path="url(#CU)" class="B C D E"><path d="M260.027 29.398l3.09 3.09"/></g><g clip-path="url(#CV)" class="B C D E"><path d="M263.016 29.398l3.09 3.09"/></g><g clip-path="url(#CW)" class="B C D E"><path d="M266.008 29.398l3.086 3.09"/></g><g clip-path="url(#CX)" class="B C D E"><path d="M268.996 29.398l3.086 3.09"/></g><g clip-path="url(#CY)" class="B C D E"><path d="M271.984 29.398l3.086 3.09"/></g><g clip-path="url(#CZ)" class="B C D E"><path d="M274.973 29.398l3.09 3.09"/></g><g clip-path="url(#Ca)" class="B C D E"><path d="M277.961 29.398l3.09 3.09"/></g><g clip-path="url(#Cb)" class="B C D E"><path d="M280.949 29.398l3.09 3.09"/></g><g clip-path="url(#Cc)" class="B C D E"><path d="M283.938 29.398l3.09 3.09"/></g><g clip-path="url(#Cd)" class="B C D E"><path d="M286.926 29.398l3.09 3.09"/></g><g clip-path="url(#Ce)" class="B C D E"><path d="M289.918 29.398l3.086 3.09"/></g><g clip-path="url(#Cf)" class="B C D E"><path d="M292.906 29.398l3.086 3.09"/></g><g clip-path="url(#Cg)" class="B C D E"><path d="M295.895 29.398l3.09 3.09"/></g><g clip-path="url(#Ch)" class="B C D E"><path d="M298.883 29.398l3.09 3.09"/></g><g clip-path="url(#Ci)" class="B C D E"><path d="M301.871 29.398l3.09 3.09"/></g><g clip-path="url(#Cj)" class="B C D E"><path d="M304.859 29.398l3.09 3.09"/></g><g clip-path="url(#Ck)" class="B C D E"><path d="M307.848 29.398l3.09 3.09"/></g><g clip-path="url(#Cl)" class="B C D E"><path d="M310.84 29.398l3.086 3.09"/></g><g clip-path="url(#Cm)" class="B C D E"><path d="M313.828 29.398l3.086 3.09"/></g><g clip-path="url(#Cn)" class="B C D E"><path d="M316.816 29.398l3.09 3.09"/></g><g clip-path="url(#Co)" class="B C D E"><path d="M319.805 29.398l3.09 3.09"/></g><g clip-path="url(#Cp)" class="B C D E"><path d="M322.793 29.398l3.09 3.09"/></g><g clip-path="url(#Cq)" class="B C D E"><path d="M325.781 29.398l3.09 3.09"/></g><g clip-path="url(#Cr)" class="B C D E"><path d="M328.77 29.398l3.09 3.09"/></g><g clip-path="url(#Cs)" class="B C D E"><path d="M331.762 29.398l3.086 3.09"/></g><g clip-path="url(#Ct)" class="B C D E"><path d="M334.75 29.398l3.086 3.09"/></g><g clip-path="url(#Cu)" class="B C D E"><path d="M337.738 29.398l3.09 3.09"/></g><g clip-path="url(#Cv)" class="B C D E"><path d="M340.727 29.398l3.09 3.09"/></g><g clip-path="url(#Cw)" class="B C D E"><path d="M343.715 29.398l3.09 3.09"/></g><g clip-path="url(#Cx)" class="B C D E"><path d="M230.141 26.41l3.086 3.09"/></g><g clip-path="url(#Cy)" class="B C D E"><path d="M233.129 26.41l3.09 3.09"/></g><g clip-path="url(#Cz)" class="B C D E"><path d="M236.117 26.41l3.09 3.09"/></g><g clip-path="url(#DA)" class="B C D E"><path d="M239.105 26.41l3.09 3.09"/></g><g clip-path="url(#DB)" class="B C D E"><path d="M242.094 26.41l3.09 3.09"/></g><g clip-path="url(#DC)" class="B C D E"><path d="M245.086 26.41l3.086 3.09"/></g><g clip-path="url(#DD)" class="B C D E"><path d="M248.074 26.41l3.086 3.09"/></g><g clip-path="url(#DE)" class="B C D E"><path d="M251.063 26.41l3.086 3.09"/></g><g clip-path="url(#DF)" class="B C D E"><path d="M254.051 26.41l3.09 3.09"/></g><g clip-path="url(#DG)" class="B C D E"><path d="M257.039 26.41l3.09 3.09"/></g><g clip-path="url(#DH)" class="B C D E"><path d="M260.027 26.41l3.09 3.09"/></g><g clip-path="url(#DI)" class="B C D E"><path d="M263.016 26.41l3.09 3.09"/></g><g clip-path="url(#DJ)" class="B C D E"><path d="M266.008 26.41l3.086 3.09"/></g><g clip-path="url(#DK)" class="B C D E"><path d="M268.996 26.41l3.086 3.09"/></g><g clip-path="url(#DL)" class="B C D E"><path d="M271.984 26.41l3.086 3.09"/></g><g clip-path="url(#DM)" class="B C D E"><path d="M274.973 26.41l3.09 3.09"/></g><g clip-path="url(#DN)" class="B C D E"><path d="M277.961 26.41l3.09 3.09"/></g><g clip-path="url(#DO)" class="B C D E"><path d="M280.949 26.41l3.09 3.09"/></g><g clip-path="url(#DP)" class="B C D E"><path d="M283.938 26.41l3.09 3.09"/></g><g clip-path="url(#DQ)" class="B C D E"><path d="M286.926 26.41l3.09 3.09"/></g><g clip-path="url(#DR)" class="B C D E"><path d="M289.918 26.41l3.086 3.09"/></g><g clip-path="url(#DS)" class="B C D E"><path d="M292.906 26.41l3.086 3.09"/></g><g clip-path="url(#DT)" class="B C D E"><path d="M295.895 26.41l3.09 3.09"/></g><g clip-path="url(#DU)" class="B C D E"><path d="M298.883 26.41l3.09 3.09"/></g><g clip-path="url(#DV)" class="B C D E"><path d="M301.871 26.41l3.09 3.09"/></g><g clip-path="url(#DW)" class="B C D E"><path d="M304.859 26.41l3.09 3.09"/></g><g clip-path="url(#DX)" class="B C D E"><path d="M307.848 26.41l3.09 3.09"/></g><g clip-path="url(#DY)" class="B C D E"><path d="M310.84 26.41l3.086 3.09"/></g><g clip-path="url(#DZ)" class="B C D E"><path d="M313.828 26.41l3.086 3.09"/></g><g clip-path="url(#Da)" class="B C D E"><path d="M316.816 26.41l3.09 3.09"/></g><g clip-path="url(#Db)" class="B C D E"><path d="M319.805 26.41l3.09 3.09"/></g><g clip-path="url(#Dc)" class="B C D E"><path d="M322.793 26.41l3.09 3.09"/></g><g clip-path="url(#Dd)" class="B C D E"><path d="M325.781 26.41l3.09 3.09"/></g><g clip-path="url(#De)" class="B C D E"><path d="M328.77 26.41l3.09 3.09"/></g><g clip-path="url(#Df)" class="B C D E"><path d="M331.762 26.41l3.086 3.09"/></g><g clip-path="url(#Dg)" class="B C D E"><path d="M334.75 26.41l3.086 3.09"/></g><g clip-path="url(#Dh)" class="B C D E"><path d="M337.738 26.41l3.09 3.09"/></g><g clip-path="url(#Di)" class="B C D E"><path d="M340.727 26.41l3.09 3.09"/></g><g clip-path="url(#Dj)" class="B C D E"><path d="M343.715 26.41l3.09 3.09"/></g><g class="D B I"><g stroke-width=".797"><path d="M5.379 31.746h169.285"/><use xlink:href="#Dk" class="K L"/><path d="M203.805 31.746H373.09"/><use xlink:href="#Dk" x="198.426" class="K L"/></g><path d="M90.418 27.496V36" class="C"/></g><use xlink:href="#A" x="87.928" y="46.669" class="F"/><path d="M35.719 31.746c0-1.098-.895-1.992-1.992-1.992s-1.992.895-1.992 1.992a1.99 1.99 0 0 0 1.992 1.992c1.098 0 1.992-.891 1.992-1.992zm0 0" class="B C I M"/><g class="F"><use xlink:href="#B" x="27.297" y="46.06"/><use xlink:href="#E" x="35.046" y="46.06"/></g><use xlink:href="#Dl" class="B C I M"/><g class="F"><use xlink:href="#E" x="144.557" y="44.538"/><use xlink:href="#C" x="75.48" y="15.774"/></g><use xlink:href="#F" x="78.248" y="15.774" class="J"/><g class="F"><use xlink:href="#C" x="84.198" y="15.774"/><use xlink:href="#G" x="89.732" y="15.774"/><use xlink:href="#E" x="100.251" y="15.774"/></g><path d="M288.848 27.496V36" class="B C D I"/><use xlink:href="#A" x="286.354" y="46.669" class="F"/><use xlink:href="#Dl" x="85.04" class="B C I J"/><g class="F"><use xlink:href="#B" x="225.722" y="46.06"/><use xlink:href="#E" x="233.471" y="46.06"/></g><path d="M347.531 31.746c0-1.098-.891-1.992-1.992-1.992s-1.992.895-1.992 1.992.895 1.992 1.992 1.992a1.99 1.99 0 0 0 1.992-1.992zm0 0" class="B C I J"/><g class="F"><use xlink:href="#E" x="342.982" y="44.538"/><use xlink:href="#C" x="273.905" y="15.774"/></g><use xlink:href="#F" x="276.673" y="15.774" class="J"/><g class="F"><use xlink:href="#C" x="282.623" y="15.774"/><use xlink:href="#D" x="288.16" y="15.774"/><use xlink:href="#E" x="298.674" y="15.774"/></g></svg>