<svg xmlns="http://www.w3.org/2000/svg" xmlns:xlink="http://www.w3.org/1999/xlink" width="600" height="276.0814552" viewBox="0 0 169.124 77.82"><style><![CDATA[.B{overflow:visible}.C{stroke:none}.D{fill:rgb(25.097656%,66.273499%,25.097656%)}.E{fill:rgb(84.70459%,18.824768%,19.216919%)}.F{stroke-width:.79701}.G{stroke-miterlimit:10}.H{fill:rgb(75%,90.586853%,98.919678%)}.I{stroke:rgb(0%,62.353516%,95.684814%)}.J{fill:rgb(0%,0%,0%)}.K{fill:rgb(0%,62.353516%,95.684814%)}]]></style><defs><symbol id="A" class="B"><path d="M3.875-6.125c-.0625-.109375-.078125-.15625-.234375-.15625-.140625 0-.15625.046875-.21875.15625L.453125-.171875C.40625-.09375.40625-.078125.40625-.0625.40625 0 .46875 0 .609375 0H6.6875c.140625 0 .1875 0 .1875-.0625 0-.015625 0-.03125-.03125-.109375zm-.515625.71875L5.71875-.671875H1zm0 0" class="C"/></symbol><symbol id="B" class="B"><path d="M6.015625-2.859375c.140625 0 .296875 0 .296875-.1875 0-.171875-.15625-.171875-.28125-.171875h-5.25c-.125 0-.296875 0-.296875.171875 0 .1875.171875.1875.296875.1875zm.015625 1.6875c.125 0 .28125 0 .28125-.171875s-.15625-.171875-.296875-.171875H.78125c-.125 0-.296875 0-.296875.171875s.171875.171875.296875.171875zm0 0" class="C"/></symbol><symbol id="C" class="B"><path d="M2.546875-3.078125c.71875-.25 1.21875-.859375 1.21875-1.546875 0-.71875-.765625-1.21875-1.609375-1.21875-.890625 0-1.546875.53125-1.546875 1.203125 0 .28125.1875.453125.4375.453125.28125 0 .453125-.203125.453125-.453125 0-.4375-.40625-.4375-.546875-.4375C1.234375-5.5 1.8125-5.625 2.125-5.625c.359375 0 .84375.203125.84375.984375 0 .109375-.03125.609375-.25 1-.265625.421875-.5625.453125-.78125.453125-.078125.015625-.28125.03125-.34375.03125-.0625.015625-.125.015625-.125.109375s.0625.09375.203125.09375H2.0625c.71875 0 1.046875.59375 1.046875 1.453125 0 1.1875-.609375 1.453125-1 1.453125-.375 0-1.03125-.15625-1.34375-.671875.3125.046875.578125-.15625.578125-.484375 0-.3125-.234375-.484375-.484375-.484375-.203125 0-.484375.125-.484375.5 0 .796875.8125 1.375 1.765625 1.375C3.203125.1875 4-.609375 4-1.5c0-.71875-.546875-1.40625-1.453125-1.578125zm0 0" class="C"/></symbol><symbol id="D" class="B"><path d="M1.109375-.671875l.9375-.90625C3.40625-2.78125 3.9375-3.265625 3.9375-4.140625c0-1-.796875-1.703125-1.859375-1.703125C1.09375-5.84375.4375-5.03125.4375-4.25c0 .484375.4375.484375.46875.484375.140625 0 .453125-.09375.453125-.453125 0-.234375-.15625-.46875-.46875-.46875-.0625 0-.078125 0-.109375.015625.203125-.5625.671875-.890625 1.1875-.890625.796875 0 1.171875.703125 1.171875 1.421875 0 .703125-.4375 1.390625-.921875 1.9375l-1.6875 1.875C.4375-.234375.4375-.203125.4375 0h3.25l.25-1.53125h-.21875c-.046875.265625-.109375.65625-.1875.78125-.0625.078125-.640625.078125-.84375.078125zm0 0" class="C"/></symbol><symbol id="E" class="B"><path d="M2.359375 1.703125c0-.015625 0-.03125-.125-.15625C1.34375.65625 1.125-.6875 1.125-1.78125c0-1.234375.265625-2.484375 1.140625-3.375.09375-.078125.09375-.09375.09375-.109375 0-.0625-.03125-.078125-.078125-.078125-.0625 0-.703125.484375-1.125 1.390625C.796875-3.171875.703125-2.375.703125-1.78125c0 .5625.078125 1.421875.46875 2.21875.4375.875 1.046875 1.34375 1.109375 1.34375.046875 0 .078125-.015625.078125-.078125zm0 0" class="C"/></symbol><symbol id="F" class="B"><path d="M2.0625-1.78125c0-.5625-.078125-1.421875-.46875-2.21875C1.15625-4.875.546875-5.34375.484375-5.34375c-.046875 0-.078125.03125-.078125.078125 0 .015625 0 .03125.140625.15625.6875.703125 1.09375 1.84375 1.09375 3.328125C1.640625-.5625 1.375.6875.5 1.59375c-.09375.078125-.09375.09375-.09375.109375 0 .046875.03125.078125.078125.078125.0625 0 .703125-.484375 1.125-1.390625C1.96875-.390625 2.0625-1.1875 2.0625-1.78125zm0 0" class="C"/></symbol><symbol id="G" class="B"><path d="M1.578125-.890625c0-.375-.3125-.6875-.6875-.6875-.390625 0-.6875.3125-.6875.6875s.296875.6875.6875.6875c.375 0 .6875-.3125.6875-.6875zm0 0" class="C"/></symbol><symbol id="H" class="B"><path d="M3.21875-3.078125c0-.015625-.015625-.0625-.0625-.0625-.078125 0-.375.28125-.484375.484375-.15625-.375-.4375-.5-.671875-.5-.84375 0-1.71875 1.0625-1.71875 2.09375 0 .703125.421875 1.140625.9375 1.140625.3125 0 .59375-.171875.84375-.421875L1.75.921875c-.0625.203125-.125.234375-.515625.234375-.09375 0-.171875 0-.171875.140625 0 .015625 0 .078125.09375.078125l.71875-.015625.734375.015625c.03125 0 .125 0 .125-.140625 0-.078125-.0625-.078125-.1875-.078125-.34375 0-.34375-.046875-.34375-.109375 0-.046875.015625-.09375.03125-.15625zm-1.96875 3C.8125-.078125.796875-.625.796875-.75c0-.34375.203125-1.109375.328125-1.421875C1.34375-2.6875 1.703125-3 2-3c.46875 0 .5625.578125.5625.640625 0 .03125-.390625 1.59375-.40625 1.625-.109375.203125-.515625.65625-.90625.65625zm0 0" class="C"/></symbol><symbol id="I" class="B"><path d="M1.703125-4.859375c0-.015625 0-.078125-.09375-.078125-.15625 0-.6875.046875-.875.0625-.046875.015625-.125.015625-.125.140625 0 .09375.0625.09375.171875.09375.34375 0 .359375.046875.359375.109375s-.078125.296875-.109375.453125l-.578125 2.3125c-.09375.359375-.125.46875-.125.71875 0 .6875.390625 1.125.90625 1.125.84375 0 1.71875-1.0625 1.71875-2.09375 0-.640625-.375-1.140625-.9375-1.140625-.328125 0-.625.21875-.84375.4375zm-.671875 2.6875c.046875-.15625.046875-.171875.109375-.25C1.484375-2.890625 1.8125-3 2-3c.25 0 .4375.21875.4375.671875 0 .421875-.234375 1.25-.359375 1.515625-.234375.484375-.5625.734375-.84375.734375-.234375 0-.46875-.1875-.46875-.71875 0-.140625 0-.265625.109375-.71875zm0 0" class="C"/></symbol><symbol id="J" class="B"><path d="M5.78125-2.015625c.140625 0 .296875 0 .296875-.171875s-.15625-.171875-.296875-.171875h-4.75c-.140625 0-.296875 0-.296875.171875s.15625.171875.296875.171875zm0 0" class="C"/></symbol><symbol id="K" class="B"><path d="M3.234375-3.3125c0-.234375-.203125-.453125-.46875-.453125s-.453125.21875-.453125.453125c0 .21875.203125.4375.453125.4375.28125 0 .46875-.21875.46875-.4375zm0 3.0625c0-.21875-.203125-.4375-.46875-.4375S2.3125-.46875 2.3125-.25c0 .234375.203125.453125.453125.453125.28125 0 .46875-.21875.46875-.453125zM.640625-1.921875c-.125 0-.25 0-.25.140625s.125.140625.25.140625H4.90625c.109375 0 .25 0 .25-.140625s-.140625-.140625-.25-.140625zm0 0" class="C"/></symbol><symbol id="L" class="B"><path d="M1.34375-.75c0-.328125-.265625-.59375-.59375-.59375S.171875-1.078125.171875-.75c0 .3125.25.578125.578125.578125S1.34375-.4375 1.34375-.75zm0 0" class="C"/></symbol><symbol id="M" class="B"><path d="M2.71875-2.59375c0-.03125-.015625-.0625-.046875-.0625-.078125 0-.3125.234375-.421875.40625-.125-.3125-.359375-.421875-.5625-.421875-.703125 0-1.453125.90625-1.453125 1.765625 0 .59375.359375.96875.796875.96875.265625 0 .5-.140625.71875-.359375L1.484375.78125c-.0625.171875-.109375.203125-.4375.203125-.078125 0-.140625 0-.140625.125 0 0 0 .0625.078125.0625l.609375-.015625.609375.015625c.03125 0 .109375 0 .109375-.125 0-.0625-.0625-.0625-.15625-.0625C1.875.984375 1.875.9375 1.875.890625S1.875.8125 1.890625.75zM1.0625-.0625c-.375 0-.390625-.46875-.390625-.578125 0-.28125.171875-.9375.28125-1.1875.1875-.453125.5-.703125.734375-.703125.40625 0 .484375.484375.484375.53125 0 .03125-.328125 1.359375-.34375 1.375-.09375.171875-.4375.5625-.765625.5625zm0 0" class="C"/></symbol><symbol id="N" class="B"><path d="M1.609375-3.109375c0-.078125-.046875-.1875-.1875-.1875s-.28125.125-.28125.265625c0 .078125.0625.1875.1875.1875.15625 0 .28125-.140625.28125-.265625zM.59375-.578125c-.015625.0625-.046875.125-.046875.203125 0 .234375.203125.421875.484375.421875.5 0 .71875-.6875.71875-.765625 0-.0625-.0625-.0625-.078125-.0625-.078125 0-.078125.03125-.109375.09375-.109375.390625-.328125.59375-.515625.59375-.109375 0-.125-.0625-.125-.171875S.953125-.46875 1-.578125l.15625-.40625.25-.625c.015625-.0625.03125-.109375.03125-.171875 0-.234375-.203125-.421875-.484375-.421875-.484375 0-.71875.6875-.71875.765625 0 .0625.0625.0625.078125.0625.078125 0 .078125-.015625.09375-.078125C.53125-1.875.75-2.0625.9375-2.0625c.078125 0 .125.046875.125.171875s-.03125.203125-.15625.5zm0 0" class="C"/></symbol><symbol id="O" class="B"><path d="M3.703125-1.125c.078125 0 .203125 0 .203125-.125s-.109375-.125-.203125-.125H.734375c-.078125 0-.203125 0-.203125.125s.125.125.203125.125zm0 0" class="C"/></symbol><symbol id="P" class="B"><path d="M2.515625-.90625H2.34375c-.015625.109375-.0625.40625-.125.453125-.046875.03125-.421875.03125-.5.03125H.8125l.984375-.84375c.375-.296875.71875-.59375.71875-1.078125 0-.59375-.53125-.96875-1.171875-.96875-.609375 0-1.03125.4375-1.03125.890625 0 .265625.21875.28125.265625.28125.125 0 .265625-.078125.265625-.265625 0-.09375-.03125-.265625-.296875-.265625.15625-.34375.5-.453125.734375-.453125.5 0 .75.390625.75.78125 0 .4375-.3125.78125-.46875.96875L.359375-.1875C.3125-.15625.3125-.140625.3125 0H2.375zm0 0" class="C"/></symbol><symbol id="Q" class="B"><path d="M1.671875-3.171875c0-.125-.015625-.140625-.15625-.140625-.3125.3125-.765625.328125-.96875.328125v.171875c.109375 0 .4375 0 .71875-.140625V-.40625c0 .15625 0 .234375-.5.234375h-.1875V0l.890625-.015625L2.359375 0v-.171875h-.1875c-.5 0-.5-.078125-.5-.234375zm0 0" class="C"/></symbol><symbol id="R" class="B"><path d="M2.3125-1.125h1.515625c.0625 0 .1875 0 .1875-.125s-.109375-.125-.1875-.125H2.3125v-1.53125c0-.0625 0-.171875-.125-.171875s-.125.109375-.125.171875V-1.375H.53125c-.0625 0-.1875 0-.1875.125s.125.125.1875.125H2.0625V.40625c0 .0625 0 .1875.125.1875s.125-.125.125-.1875zm0 0" class="C"/></symbol><symbol id="S" class="B"><path d="M1.359375-1.671875c.390625 0 .671875.28125.671875.8125 0 .609375-.359375.796875-.65625.796875-.1875 0-.625-.046875-.84375-.34375.234375-.015625.296875-.171875.296875-.28125 0-.15625-.125-.28125-.28125-.28125-.140625 0-.28125.09375-.28125.296875 0 .46875.515625.765625 1.125.765625.6875 0 1.171875-.453125 1.171875-.953125 0-.390625-.3125-.78125-.875-.890625.53125-.1875.71875-.5625.71875-.875 0-.390625-.453125-.6875-1-.6875-.5625 0-.984375.265625-.984375.671875 0 .171875.109375.265625.265625.265625s.25-.125.25-.25c0-.15625-.09375-.25-.25-.265625.171875-.21875.515625-.28125.703125-.28125.21875 0 .53125.109375.53125.546875 0 .21875-.0625.4375-.203125.59375-.15625.1875-.296875.203125-.546875.21875l-.15625.015625c-.015625 0-.046875 0-.046875.0625s.03125.0625.125.0625zm0 0" class="C"/></symbol><clipPath id="T"><path d="M139 7h30.125v33H139zm0 0"/></clipPath></defs><g stroke="rgb(25.097656%,66.273499%,25.097656%)" class="F G"><path d="M70.410156 28.847656C93.859375 52.296875 132 52.296875 152.246094 32.054688" fill="none"/><path d="M2.889552-.00192423C2.533233.0892271.972611.600227-.00243247 1.155422l.002762162-2.31193C.975373-.601313 2.535995-.0903134 2.889552-.00192423zm0 0" transform="matrix(.7071 -.7071 -.7071 -.7071 152.2445 32.05356)" class="D"/></g><use xlink:href="#A" x="101.238" y="58.329" class="D"/><use xlink:href="#B" x="110.980865" y="58.329" class="D"/><use xlink:href="#C" x="120.237156" y="58.329" class="D"/><use xlink:href="#E" x="97.585" y="68.684" class="D"/><use xlink:href="#G" x="101.93792" y="67.69444" class="D"/><use xlink:href="#H" x="105.30128" y="68.684" class="D"/><use xlink:href="#G" x="110.319865" y="67.69444" class="D"/><use xlink:href="#H" x="113.68394" y="68.684" class="D"/><use xlink:href="#G" x="118.70181" y="67.69444" class="D"/><use xlink:href="#H" x="122.065885" y="68.684" class="D"/><use xlink:href="#F" x="125.50146" y="68.684" class="D"/><g stroke="rgb(84.70459%,18.824768%,19.216919%)" class="F G"><path d="M70.410156 28.847656c-15.632812 15.632813-41.0625 15.632813-53.488281 3.207032" fill="none"/><path d="M2.887912.000284613C2.534355.0886738.973733.599674-.00130993 1.154868v-2.309167C.973733-.599105 2.534355-.0881046 2.887912.000284613zm0 0" transform="matrix(-.7071 -.7071 -.7071 .7071 16.92115 32.05356)" class="E"/></g><use xlink:href="#A" x="26.963" y="52.467" class="E"/><use xlink:href="#B" x="36.705865" y="52.467" class="E"/><use xlink:href="#J" x="45.95868" y="52.467" class="E"/><use xlink:href="#D" x="52.77692" y="52.467" class="E"/><use xlink:href="#E" x="27.15" y="62.821" class="E"/><use xlink:href="#K" x="31.50292" y="62.821" class="E"/><use xlink:href="#H" x="38.626465" y="62.821" class="E"/><use xlink:href="#K" x="43.64505" y="62.821" class="E"/><use xlink:href="#H" x="50.76788" y="62.821" class="E"/><use xlink:href="#F" x="54.203455" y="62.821" class="E"/><g class="K"><use xlink:href="#L" x="24.677" y="23.62068"/><use xlink:href="#M" x="28.19326" y="24.458"/></g><path d="M18.695313 23.74609375c0-2.74999975-2.226563-4.98046875-4.980469-4.98046875s-4.980469 2.230469-4.980469 4.98046875 2.230469 4.98046925 4.980469 4.98046925 4.980469-2.230469 4.980469-4.98046925zm0 0" class="F G H I"/><g class="J"><use xlink:href="#I" x="7.355" y="12.302"/><use xlink:href="#N" x="10.41234" y="13.37021"/><use xlink:href="#O" x="12.427925" y="13.37021"/><use xlink:href="#P" x="16.879515" y="13.37021"/></g><g class="K"><use xlink:href="#L" x="53.024" y="23.62068"/><use xlink:href="#M" x="56.539655" y="24.458"/></g><path d="M47.042969 23.74609375c0-2.74999975-2.230469-4.98046875-4.980469-4.98046875s-4.980469 2.230469-4.980469 4.98046875S39.3125 28.726563 42.0625 28.726563s4.980469-2.230469 4.980469-4.98046925zm0 0" class="F G H I"/><g class="J"><use xlink:href="#I" x="35.702" y="12.302"/><use xlink:href="#N" x="38.75934" y="13.37021"/><use xlink:href="#O" x="40.77421" y="13.37021"/><use xlink:href="#Q" x="45.226515" y="13.37021"/></g><g class="K"><use xlink:href="#L" x="81.37" y="23.62068"/><use xlink:href="#M" x="84.88626" y="24.458"/></g><path d="M75.390625 23.74609375c0-2.74999975-2.230469-4.98046875-4.980469-4.98046875s-4.980468 2.230469-4.980468 4.98046875 2.230468 4.98046925 4.980468 4.98046925 4.980469-2.230469 4.980469-4.98046925zm0 0" class="F G H I"/><g class="J"><use xlink:href="#I" x="67.694" y="12.895"/><use xlink:href="#N" x="70.75134" y="13.963925"/></g><g class="K"><use xlink:href="#L" x="109.717" y="23.62068"/><use xlink:href="#M" x="113.232655" y="24.458"/></g><path d="M103.738281 23.74609375c0-2.74999975-2.230468-4.98046875-4.980468-4.98046875s-4.984375 2.230469-4.984375 4.98046875 2.230468 4.98046925 4.984375 4.98046925 4.980468-2.230469 4.980468-4.98046925zm0 0" class="F G H I"/><g class="J"><use xlink:href="#I" x="92.434" y="12.302"/><use xlink:href="#N" x="95.49134" y="13.37021"/><use xlink:href="#R" x="97.506925" y="13.37021"/><use xlink:href="#Q" x="101.879881" y="13.37021"/></g><g class="K"><use xlink:href="#L" x="138.063" y="23.62068"/><use xlink:href="#M" x="141.57926" y="24.458"/></g><path d="M132.085938 23.74609375c0-2.74999975-2.230469-4.98046875-4.984375-4.98046875s-4.980469 2.230469-4.980469 4.98046875 2.230469 4.98046925 4.980469 4.98046925 4.984375-2.230469 4.984375-4.98046925zm0 0" class="F G H I"/><g class="J"><use xlink:href="#I" x="120.781" y="12.302"/><use xlink:href="#N" x="123.837625" y="13.37021"/><use xlink:href="#R" x="125.85321" y="13.37021"/><use xlink:href="#P" x="130.226166" y="13.37021"/></g><path d="M160.429688 23.746094c0-2.75-2.230469-4.980469-4.980469-4.980469s-4.980469 2.230469-4.980469 4.980469 2.230469 4.980469 4.980469 4.980469 4.980469-2.230469 4.980469-4.980469zm0 0" class="H"/><g clip-path="url(#T)" class="F G I"><path d="M160.429688 23.74609375c0-2.74999975-2.230469-4.98046875-4.980469-4.98046875s-4.980469 2.230469-4.980469 4.98046875 2.230469 4.98046925 4.980469 4.98046925 4.980469-2.230469 4.980469-4.98046925zm0 0" fill="none"/></g><g class="J"><use xlink:href="#I" x="149.127" y="12.302"/><use xlink:href="#N" x="152.18434" y="13.37021"/><use xlink:href="#R" x="154.199925" y="13.37021"/><use xlink:href="#S" x="158.572881" y="13.37021"/></g></svg>